<svg width="21" height="21" viewBox="0 0 21 21" fill="none" xmlns="http://www.w3.org/2000/svg">
<path d="M1.98996 20.3204C1.53951 20.3204 1.14537 20.1515 0.807535 19.8137C0.469699 19.4758 0.300781 19.0817 0.300781 18.6312V1.73947C0.300781 1.28902 0.469699 0.894882 0.807535 0.557046C1.14537 0.219211 1.53951 0.050293 1.98996 0.050293H13.0822V1.73947H1.98996V18.6312H18.8817V7.53898H20.5709V18.6312C20.5709 19.0817 20.402 19.4758 20.0642 19.8137C19.7263 20.1515 19.3322 20.3204 18.8817 20.3204H1.98996ZM5.95952 15.9004V14.2112H14.9403V15.9004H5.95952ZM5.95952 12.325V10.6358H14.9403V12.325H5.95952ZM5.95952 8.74956V7.06038H14.9403V8.74956H5.95952ZM16.4043 6.69439V4.21693H13.9268V2.52775H16.4043V0.050293H18.0934V2.52775H20.5709V4.21693H18.0934V6.69439H16.4043Z" fill="black"/>
</svg>
