<svg width="23" height="20" viewBox="0 0 23 20" fill="none" xmlns="http://www.w3.org/2000/svg">
<path fill-rule="evenodd" clip-rule="evenodd" d="M7.18972 0.87868C7.75232 0.31607 8.51539 0 9.31104 0H13.311C14.1067 0 14.8697 0.31607 15.4324 0.87868C15.995 1.44129 16.311 2.20435 16.311 3V4H19.311C20.9679 4 22.311 5.34315 22.311 7V17C22.311 18.6569 20.9679 20 19.311 20H3.31104C1.65418 20 0.311035 18.6569 0.311035 17V7C0.311035 5.34315 1.65418 4 3.31104 4H6.31104V3C6.31104 2.20435 6.62711 1.44129 7.18972 0.87868ZM6.31104 6H3.31104C2.75875 6 2.31104 6.44772 2.31104 7V17C2.31104 17.5523 2.75875 18 3.31104 18H6.31104V6ZM8.31104 18V6H14.311V18H8.31104ZM16.311 18H19.311C19.8633 18 20.311 17.5523 20.311 17V7C20.311 6.44771 19.8633 6 19.311 6H16.311V18ZM14.311 4H8.31104V3C8.31104 2.73478 8.41639 2.48043 8.60393 2.29289C8.79147 2.10536 9.04582 2 9.31104 2H13.311C13.5763 2 13.8306 2.10536 14.0181 2.29289C14.2057 2.48043 14.311 2.73478 14.311 3V4Z" fill="black"/>
</svg>
