<svg width="12" height="14" viewBox="0 0 12 14" fill="none" xmlns="http://www.w3.org/2000/svg">
<path d="M11.0232 5.00076L10.7744 11.8257C10.7532 12.4102 10.4815 12.9643 10.017 13.3702C9.55249 13.7762 8.9317 14.0021 8.2864 14H3.55913C2.91425 14.0021 2.29381 13.7765 1.82935 13.371C1.3649 12.9656 1.09292 12.4121 1.0711 11.828L0.822295 5.00076C0.816851 4.85126 0.877164 4.70591 0.989963 4.5967C1.10276 4.4875 1.25881 4.42337 1.42378 4.41844C1.58874 4.41351 1.74912 4.46817 1.86962 4.5704C1.99011 4.67263 2.06087 4.81405 2.06631 4.96356L2.31512 11.7902C2.32751 12.0816 2.46402 12.3574 2.69599 12.5595C2.92796 12.7616 3.23733 12.8745 3.55913 12.8742H8.2864C8.60861 12.8744 8.91834 12.7613 9.15038 12.5587C9.38242 12.3561 9.51865 12.0798 9.53042 11.7879L9.77922 4.96356C9.78466 4.81405 9.85542 4.67263 9.97591 4.5704C10.0964 4.46817 10.2568 4.41351 10.4218 4.41844C10.5867 4.42337 10.7428 4.4875 10.8556 4.5967C10.9684 4.70591 11.0287 4.85126 11.0232 5.00076ZM11.8462 2.72954C11.8462 2.87904 11.7806 3.02243 11.664 3.12815C11.5473 3.23386 11.3891 3.29326 11.2241 3.29326H0.622009C0.457042 3.29326 0.298831 3.23386 0.182182 3.12815C0.0655327 3.02243 0 2.87904 0 2.72954C0 2.58003 0.0655327 2.43664 0.182182 2.33093C0.298831 2.22521 0.457042 2.16582 0.622009 2.16582H2.55024C2.74732 2.1663 2.93755 2.10031 3.08391 1.98069C3.23026 1.86107 3.32228 1.69638 3.34205 1.51867C3.38795 1.10179 3.60346 0.715327 3.94658 0.434581C4.2897 0.153836 4.73586 -0.00108421 5.19813 5.71211e-06H6.64741C7.10967 -0.00108421 7.55583 0.153836 7.89895 0.434581C8.24207 0.715327 8.45758 1.10179 8.50348 1.51867C8.52325 1.69638 8.61527 1.86107 8.76163 1.98069C8.90798 2.10031 9.09822 2.1663 9.2953 2.16582H11.2235C11.3885 2.16582 11.5467 2.22521 11.6634 2.33093C11.78 2.43664 11.8455 2.58003 11.8455 2.72954H11.8462ZM4.42186 2.16582H7.42492C7.34318 1.99656 7.28972 1.8172 7.2663 1.63367C7.2509 1.49471 7.17912 1.36589 7.0649 1.27216C6.95067 1.17843 6.80212 1.12646 6.64803 1.12632H5.19875C5.04466 1.12646 4.89611 1.17843 4.78188 1.27216C4.66765 1.36589 4.59588 1.49471 4.58047 1.63367C4.55685 1.81723 4.50319 1.99659 4.42124 2.16582H4.42186ZM5.04822 10.7067V5.90666C5.04822 5.75715 4.98269 5.61377 4.86604 5.50805C4.74939 5.40233 4.59118 5.34294 4.42621 5.34294C4.26125 5.34294 4.10304 5.40233 3.98639 5.50805C3.86974 5.61377 3.8042 5.75715 3.8042 5.90666V10.709C3.8042 10.8585 3.86974 11.0019 3.98639 11.1076C4.10304 11.2133 4.26125 11.2727 4.42621 11.2727C4.59118 11.2727 4.74939 11.2133 4.86604 11.1076C4.98269 11.0019 5.04822 10.8585 5.04822 10.709V10.7067ZM8.04257 10.7067V5.90666C8.04257 5.75715 7.97704 5.61377 7.86039 5.50805C7.74374 5.40233 7.58553 5.34294 7.42056 5.34294C7.2556 5.34294 7.09738 5.40233 6.98074 5.50805C6.86409 5.61377 6.79855 5.75715 6.79855 5.90666V10.709C6.79855 10.8585 6.86409 11.0019 6.98074 11.1076C7.09738 11.2133 7.2556 11.2727 7.42056 11.2727C7.58553 11.2727 7.74374 11.2133 7.86039 11.1076C7.97704 11.0019 8.04257 10.8585 8.04257 10.709V10.7067Z" fill="black"/>
</svg>
