<svg width="12" height="14" viewBox="0 0 12 14" fill="none" xmlns="http://www.w3.org/2000/svg">
<path d="M10.5334 12.5959H0.704978C0.518789 12.5959 0.340225 12.6699 0.20857 12.8016C0.0769141 12.9332 0.00295059 13.1118 0.00295059 13.298C0.00295059 13.4842 0.0769141 13.6627 0.20857 13.7944C0.340225 13.926 0.518789 14 0.704978 14H10.5334C10.7195 14 10.8981 13.926 11.0298 13.7944C11.1614 13.6627 11.2354 13.4842 11.2354 13.298C11.2354 13.1118 11.1614 12.9332 11.0298 12.8016C10.8981 12.6699 10.7195 12.5959 10.5334 12.5959ZM0.704978 11.1919H0.76816L3.69561 10.9251C4.0163 10.8932 4.31623 10.7519 4.54507 10.525L10.8633 4.20672C11.1085 3.94765 11.2411 3.60193 11.2319 3.24532C11.2227 2.88871 11.0724 2.55029 10.8142 2.30422L8.89062 0.380668C8.63957 0.144854 8.31059 0.00954725 7.96628 0.000486335C7.62196 -0.00857458 7.28633 0.109243 7.02322 0.331526L0.704978 6.64977C0.478059 6.87861 0.336768 7.17854 0.304822 7.49923L0.00295059 10.4267C-0.00650645 10.5295 0.00683584 10.6331 0.0420263 10.7302C0.0772167 10.8273 0.133389 10.9154 0.206538 10.9883C0.272136 11.0534 0.349932 11.1048 0.435465 11.1398C0.520998 11.1747 0.612586 11.1924 0.704978 11.1919ZM7.9148 1.36351L9.83133 3.28004L8.42728 4.64899L6.54585 2.76756L7.9148 1.36351ZM1.66676 7.61857L5.61917 3.69424L7.51464 5.58971L3.58329 9.52106L1.47721 9.71763L1.66676 7.61857Z" fill="black"/>
</svg>
