<svg width="22" height="15" viewBox="0 0 22 15" fill="none" xmlns="http://www.w3.org/2000/svg">
<path d="M10.6819 11.0673C11.8921 11.0673 12.77 10.6823 13.5575 9.91225C14.345 9.14225 14.7387 8.20503 14.7387 7.10059C14.7387 5.99614 14.345 5.05892 13.5575 4.28892C12.77 3.51892 11.8114 3.13392 10.6819 3.13392C9.55234 3.13392 8.59382 3.51892 7.80632 4.28892C7.01882 5.05892 6.62507 5.99614 6.62507 7.10059C6.62507 8.20503 7.01882 9.14225 7.80632 9.91225C8.59382 10.6823 9.47171 11.0673 10.6819 11.0673ZM10.6819 9.71392C9.93416 9.71392 9.30177 9.46114 8.78473 8.95559C8.26768 8.45003 8.00916 7.8317 8.00916 7.10059C8.00916 6.36947 8.26768 5.75114 8.78473 5.24559C9.30177 4.74003 9.93416 4.48725 10.6819 4.48725C11.4296 4.48725 12.062 4.74003 12.579 5.24559C13.0961 5.75114 13.3546 6.36947 13.3546 7.10059C13.3546 7.8317 13.0961 8.45003 12.579 8.95559C12.062 9.46114 11.4296 9.71392 10.6819 9.71392ZM10.6819 14.1006C8.35916 14.1006 6.25916 13.455 4.38188 12.1639C2.50461 10.8728 1.10461 9.18503 0.181885 7.10059C1.10461 5.01614 2.50461 3.32836 4.38188 2.03725C6.25916 0.746141 8.35916 0.100586 10.6819 0.100586C13.0046 0.100586 15.1046 0.746141 16.9819 2.03725C18.8592 3.32836 20.2592 5.01614 21.1819 7.10059C20.2592 9.18503 18.8592 10.8728 16.9819 12.1639C15.1046 13.455 13.0046 14.1006 10.6819 14.1006ZM10.6819 12.7006C12.6069 12.7006 14.3768 12.1911 15.9915 11.1723C17.6063 10.1534 18.8353 8.79614 19.6785 7.10059C18.8353 5.40503 17.6063 4.04781 15.9915 3.02892C14.3768 2.01003 12.6069 1.50059 10.6819 1.50059C8.75688 1.50059 6.987 2.01003 5.37223 3.02892C3.75745 4.04781 2.52052 5.40503 1.66143 7.10059C2.52052 8.79614 3.75745 10.1534 5.37223 11.1723C6.987 12.1911 8.75688 12.7006 10.6819 12.7006Z" fill="black"/>
</svg>
