<svg width="23" height="14" viewBox="0 0 23 14" fill="none" xmlns="http://www.w3.org/2000/svg">
<path d="M11.2012 14C9.77317 14 8.2985 13.6453 6.8145 12.95C5.6525 12.404 4.48117 11.648 3.33317 10.7007C1.3965 9.1 0.201833 7.51333 0.1505 7.448C-0.0501667 7.182 -0.0501667 6.818 0.1505 6.552C0.201833 6.48667 1.3965 4.9 3.33317 3.29933C4.48117 2.352 5.6525 1.596 6.8145 1.05C8.2985 0.354667 9.77317 0 11.2012 0C12.6292 0 14.1038 0.354667 15.5878 1.05C16.7498 1.596 17.9212 2.352 19.0692 3.29933C21.0058 4.9 22.2052 6.48667 22.2518 6.552C22.4525 6.818 22.4525 7.182 22.2518 7.448C22.2005 7.51333 21.0058 9.1 19.0692 10.7007C17.9212 11.648 16.7498 12.404 15.5878 12.95C14.1038 13.6453 12.6292 14 11.2012 14ZM1.70917 7C2.8805 8.386 6.74917 12.5067 11.2012 12.5067C15.6625 12.5067 19.5218 8.386 20.6932 7C19.5218 5.614 15.6532 1.49333 11.2012 1.49333C6.73983 1.49333 2.8805 5.614 1.70917 7Z" fill="black"/>
<path d="M11.2013 10.3601C9.34861 10.3601 7.84128 8.8528 7.84128 7.00014C7.84128 5.14747 9.34861 3.64014 11.2013 3.64014C13.0539 3.64014 14.5613 5.14747 14.5613 7.00014C14.5613 8.8528 13.0539 10.3601 11.2013 10.3601ZM11.2013 5.13347C10.1699 5.13347 9.33461 5.9688 9.33461 7.00014C9.33461 8.03147 10.1699 8.8668 11.2013 8.8668C12.2326 8.8668 13.0679 8.03147 13.0679 7.00014C13.0679 5.9688 12.2326 5.13347 11.2013 5.13347Z" fill="black"/>
</svg>
