<svg width="24" height="14" viewBox="0 0 24 14" fill="none" xmlns="http://www.w3.org/2000/svg">
<path d="M22.6154 0H15.6154C15.3298 0 15.0558 0.113461 14.8539 0.315424C14.6519 0.517386 14.5385 0.791305 14.5385 1.07692V4.30769C14.5395 4.4973 14.5912 4.68319 14.6882 4.84615C14.5912 5.00912 14.5395 5.195 14.5385 5.38462V6.46154H10.7692V7.53846H14.5385V8.61539H10.2308V9.69231H14.5385V10.7692H9.69231V11.8462H14.5385V12.9231H6.46154C6.46154 13.2087 6.575 13.4826 6.77696 13.6846C6.97892 13.8865 7.25284 14 7.53846 14H14.5385C14.7281 13.9989 14.914 13.9472 15.0769 13.8503C15.2399 13.9472 15.4258 13.9989 15.6154 14H22.6154C22.901 14 23.1749 13.8865 23.3769 13.6846C23.5788 13.4826 23.6923 13.2087 23.6923 12.9231V9.69231C23.6912 9.5027 23.6396 9.31681 23.5426 9.15385C23.6396 8.99088 23.6912 8.805 23.6923 8.61539V5.38462C23.6912 5.195 23.6396 5.00912 23.5426 4.84615C23.6396 4.68319 23.6912 4.4973 23.6923 4.30769V1.07692C23.6923 0.791305 23.5788 0.517386 23.3769 0.315424C23.1749 0.113461 22.901 0 22.6154 0ZM22.6154 10.7692H15.6154V9.69231H22.6154V10.7692ZM15.6154 8.61539V7.53846H22.6154V8.61539H15.6154ZM22.6154 6.46154H15.6154V5.38462H22.6154V6.46154ZM15.6154 4.30769V3.23077H22.6154V4.30769H15.6154ZM15.6154 1.07692H22.6154V2.15385H15.6154V1.07692ZM22.6154 12.9231H15.6154V11.8462H22.6154V12.9231Z" fill="black"/>
<path d="M9.69231 8.07693C9.69231 7.11845 9.40809 6.18149 8.87559 5.38455C8.34308 4.5876 7.58622 3.96646 6.7007 3.59966C5.81518 3.23287 4.84078 3.1369 3.90072 3.32389C2.96066 3.51088 2.09715 3.97243 1.41941 4.65018C0.741661 5.32792 0.28011 6.19143 0.0931197 7.13149C-0.0938702 8.07155 0.00209975 9.04595 0.368894 9.93147C0.735688 10.817 1.35683 11.5739 2.15378 12.1064C2.95072 12.6389 3.88768 12.9231 4.84616 12.9231C6.13095 12.9215 7.36268 12.4104 8.27117 11.5019C9.17966 10.5935 9.69074 9.36172 9.69231 8.07693ZM4.84616 11.8462C4.10067 11.8462 3.37193 11.6251 2.75208 11.2109C2.13224 10.7968 1.64912 10.2081 1.36384 9.51935C1.07856 8.83061 1.00391 8.07274 1.14935 7.34158C1.29479 6.61043 1.65377 5.93881 2.18091 5.41168C2.70804 4.88454 3.37966 4.52556 4.11082 4.38012C4.84197 4.23468 5.59984 4.30933 6.28858 4.59461C6.97731 4.87989 7.56599 5.36301 7.98016 5.98285C8.39433 6.6027 8.61539 7.33144 8.61539 8.07693C8.61425 9.07624 8.21677 10.0343 7.51014 10.7409C6.80352 11.4475 5.84547 11.845 4.84616 11.8462Z" fill="black"/>
<path d="M5.92308 5.38462H5.38462V4.84615H4.30769V5.38462H3.76923C3.48361 5.38462 3.20969 5.49808 3.00773 5.70004C2.80577 5.902 2.69231 6.17592 2.69231 6.46154V7.53846C2.69231 7.82408 2.80577 8.098 3.00773 8.29996C3.20969 8.50192 3.48361 8.61538 3.76923 8.61538H5.92308V9.69231H3.76923V9.15385H2.69231V9.69231C2.69231 9.97792 2.80577 10.2518 3.00773 10.4538C3.20969 10.6558 3.48361 10.7692 3.76923 10.7692H4.30769V11.3077H5.38462V10.7692H5.92308C6.20869 10.7692 6.48261 10.6558 6.68458 10.4538C6.88654 10.2518 7 9.97792 7 9.69231V8.61538C7 8.32977 6.88654 8.05585 6.68458 7.85388C6.48261 7.65192 6.20869 7.53846 5.92308 7.53846H3.76923V6.46154H5.92308V7H7V6.46154C7 6.17592 6.88654 5.902 6.68458 5.70004C6.48261 5.49808 6.20869 5.38462 5.92308 5.38462Z" fill="black"/>
</svg>
