<svg width="18" height="21" viewBox="0 0 18 21" fill="none" xmlns="http://www.w3.org/2000/svg">
<path fill-rule="evenodd" clip-rule="evenodd" d="M2 0.939209C0.895431 0.939209 0 1.83419 0 2.9382V3.60452V5.93668C0 7.04069 0.895432 7.93566 2 7.93566H6C7.10457 7.93566 8 7.04069 8 5.93668V2.9382C8 1.83419 7.10457 0.939209 6 0.939209H2ZM2 2.9382H6V5.93668L2 5.93668V3.60452V2.9382ZM12 0.939209C10.8954 0.939209 10 1.83419 10 2.9382V4.93718V9.93465C10 11.0387 10.8954 11.9336 12 11.9336H16C17.1046 11.9336 18 11.0387 18 9.93465V2.9382C18 1.83419 17.1046 0.939209 16 0.939209H12ZM12 2.9382H16V9.93465H12V4.93718V2.9382ZM10 15.9316C10 14.8276 10.8954 13.9326 12 13.9326H16C17.1046 13.9326 18 14.8276 18 15.9316V18.9301C18 20.0341 17.1046 20.9291 16 20.9291H12C10.8954 20.9291 10 20.0341 10 18.9301V16.5979V15.9316ZM16 15.9316H12V16.5979V18.9301H16V15.9316ZM2 9.93465C0.895431 9.93465 0 10.8296 0 11.9336V13.9326V18.9301C0 20.0341 0.89543 20.9291 2 20.9291H6C7.10457 20.9291 8 20.0341 8 18.9301V11.9336C8 10.8296 7.10457 9.93465 6 9.93465H2ZM2 11.9336H6V18.9301H2V13.9326V11.9336Z" fill="black"/>
</svg>
