<svg width="16" height="16" viewBox="0 0 16 16" fill="none" xmlns="http://www.w3.org/2000/svg">
<path d="M5.66222 2.23111C5.50222 2.8 5.42222 3.39556 5.42222 4C5.42222 7.62667 8.37333 10.5778 12 10.5778C12.6044 10.5778 13.2 10.4978 13.7689 10.3378C12.8444 12.6133 10.6044 14.2222 8 14.2222C4.56889 14.2222 1.77778 11.4311 1.77778 8C1.77778 5.39556 3.38667 3.15556 5.66222 2.23111ZM8 0C3.58222 0 0 3.58222 0 8C0 12.4178 3.58222 16 8 16C12.4178 16 16 12.4178 16 8C16 7.59111 15.9644 7.18222 15.9111 6.79111C15.04 8.00889 13.6178 8.8 12 8.8C9.35111 8.8 7.2 6.64889 7.2 4C7.2 2.39111 7.99111 0.96 9.20889 0.0888888C8.81778 0.0355555 8.40889 0 8 0Z" fill="black"/>
</svg>
