<svg width="28" height="20" viewBox="0 0 28 20" fill="none" xmlns="http://www.w3.org/2000/svg">
<path fill-rule="evenodd" clip-rule="evenodd" d="M9.5 2C7.84315 2 6.5 3.34315 6.5 5C6.5 6.65685 7.84315 8 9.5 8C11.1569 8 12.5 6.65685 12.5 5C12.5 3.34315 11.1569 2 9.5 2ZM4.5 5C4.5 2.23858 6.73858 0 9.5 0C12.2614 0 14.5 2.23858 14.5 5C14.5 7.76142 12.2614 10 9.5 10C6.73858 10 4.5 7.76142 4.5 5ZM1.96446 13.4645C2.90214 12.5268 4.17392 12 5.5 12H13.5C14.8261 12 16.0979 12.5268 17.0355 13.4645C17.9732 14.4021 18.5 15.6739 18.5 17V19C18.5 19.5523 18.0523 20 17.5 20C16.9477 20 16.5 19.5523 16.5 19V17C16.5 16.2044 16.1839 15.4413 15.6213 14.8787C15.0587 14.3161 14.2956 14 13.5 14H5.5C4.70435 14 3.94129 14.3161 3.37868 14.8787C2.81607 15.4413 2.5 16.2043 2.5 17V19C2.5 19.5523 2.05228 20 1.5 20C0.947715 20 0.5 19.5523 0.5 19V17C0.5 15.6739 1.02678 14.4021 1.96446 13.4645Z" fill="black"/>
<path d="M26 17L19.93 11L26 5L27.43 6.41L22.79 11L27.43 15.59L26 17Z" fill="black"/>
</svg>
