<svg width="15" height="20" viewBox="0 0 15 20" fill="none" xmlns="http://www.w3.org/2000/svg">
<path d="M5.50524 13.8906L5.30093 13.1285L5.48912 12.7886C6.8429 13.4393 8.42399 13.6259 9.97796 13.2098C13.443 12.2818 15.4992 8.72223 14.5707 5.25891C13.6422 1.79559 10.0809 -0.259501 6.61584 0.668492C3.15077 1.59648 1.09463 5.15601 2.02309 8.61933C2.43948 10.1725 3.39171 11.4478 4.63244 12.2942L4.43201 12.6271L3.66951 12.8313L0.146276 18.9447L1.96978 19.997L5.50524 13.8906ZM3.95349 8.10234C3.30952 5.70021 4.72974 3.24157 7.13309 2.59792C9.53644 1.95427 11.9963 3.37376 12.6403 5.7759C13.2843 8.17803 11.8641 10.6367 9.46071 11.2803C7.05736 11.924 4.59747 10.5045 3.95349 8.10234Z" fill="black"/>
</svg>
