<svg width="18" height="19" viewBox="0 0 18 19" fill="none" xmlns="http://www.w3.org/2000/svg">
<path fill-rule="evenodd" clip-rule="evenodd" d="M9 1.9C7.34315 1.9 6 3.17599 6 4.75C6 6.32401 7.34315 7.6 9 7.6C10.6569 7.6 12 6.32401 12 4.75C12 3.17599 10.6569 1.9 9 1.9ZM4 4.75C4 2.12665 6.23858 0 9 0C11.7614 0 14 2.12665 14 4.75C14 7.37335 11.7614 9.5 9 9.5C6.23858 9.5 4 7.37335 4 4.75ZM1.46447 12.7912C2.40215 11.9004 3.67392 11.4 5 11.4H13C14.3261 11.4 15.5979 11.9004 16.5355 12.7912C17.4732 13.682 18 14.8902 18 16.15V18.05C18 18.5747 17.5523 19 17 19C16.4477 19 16 18.5747 16 18.05V16.15C16 15.3941 15.6839 14.6692 15.1213 14.1347C14.5587 13.6003 13.7956 13.3 13 13.3H5C4.20435 13.3 3.44129 13.6003 2.87868 14.1347C2.31607 14.6692 2 15.3941 2 16.15V18.05C2 18.5747 1.55228 19 1 19C0.447715 19 0 18.5747 0 18.05V16.15C0 14.8902 0.526784 13.682 1.46447 12.7912Z" fill="black"/>
</svg>
