<svg width="32" height="32" viewBox="0 0 32 32" fill="none" xmlns="http://www.w3.org/2000/svg">
<path d="M16.6666 29.3335H5.43998C3.89331 29.3335 2.62665 28.0935 2.62665 26.5735V6.78682C2.62665 3.29348 5.22665 1.70682 8.41331 3.26682L14.3333 6.17348C15.6133 6.80015 16.6666 8.46682 16.6666 9.88015V29.3335Z" stroke="#737791" stroke-width="1.5" stroke-linecap="round" stroke-linejoin="round"/>
<path d="M29.2933 20.0801V25.1201C29.2933 28.0001 27.96 29.3335 25.08 29.3335H16.6666V13.8935L17.2933 14.0268L23.2933 15.3735L26 15.9735C27.76 16.3601 29.2 17.2668 29.28 19.8268C29.2933 19.9068 29.2933 19.9868 29.2933 20.0801Z" stroke="#737791" stroke-width="1.5" stroke-linecap="round" stroke-linejoin="round"/>
<path d="M7.33331 12.0002H11.96" stroke="#737791" stroke-width="1.5" stroke-linecap="round" stroke-linejoin="round"/>
<path d="M7.33331 17.3335H11.96" stroke="#737791" stroke-width="1.5" stroke-linecap="round" stroke-linejoin="round"/>
<path d="M23.2933 15.3735V19.6668C23.2933 21.3201 21.9466 22.6668 20.2933 22.6668C18.6399 22.6668 17.2933 21.3201 17.2933 19.6668V14.0268L23.2933 15.3735Z" stroke="#737791" stroke-width="1.5" stroke-linecap="round" stroke-linejoin="round"/>
<path d="M29.2799 19.8268C29.1999 21.4001 27.8933 22.6668 26.2933 22.6668C24.6399 22.6668 23.2933 21.3201 23.2933 19.6668V15.3735L25.9999 15.9735C27.7599 16.3601 29.1999 17.2668 29.2799 19.8268Z" stroke="#737791" stroke-width="1.5" stroke-linecap="round" stroke-linejoin="round"/>
</svg>
