<svg width="32" height="32" viewBox="0 0 32 32" fill="none" xmlns="http://www.w3.org/2000/svg">
<path d="M16.6667 29.3331H5.44004C3.89338 29.3331 2.62671 28.0931 2.62671 26.5731V6.78648C2.62671 3.29315 5.22671 1.70648 8.41338 3.26648L14.3334 6.17315C15.6134 6.79981 16.6667 8.46648 16.6667 9.87981V29.3331Z" fill="white" stroke="#737791" stroke-width="1.5" stroke-linecap="round" stroke-linejoin="round"/>
<path d="M29.2934 20.0802V25.1202C29.2934 28.0002 27.9601 29.3336 25.0801 29.3336H16.6667V13.8936L17.2934 14.0269L23.2934 15.3736L26.0001 15.9736C27.7601 16.3602 29.2001 17.2669 29.2801 19.8269C29.2934 19.9069 29.2934 19.9869 29.2934 20.0802Z" stroke="#737791" stroke-width="1.5" stroke-linecap="round" stroke-linejoin="round"/>
<path d="M7.33325 12H11.9599" stroke="#737791" stroke-width="1.5" stroke-linecap="round" stroke-linejoin="round"/>
<path d="M7.33325 17.333H11.9599" stroke="#737791" stroke-width="1.5" stroke-linecap="round" stroke-linejoin="round"/>
<path d="M23.2932 15.373V19.6664C23.2932 21.3197 21.9465 22.6664 20.2932 22.6664C18.6399 22.6664 17.2932 21.3197 17.2932 19.6664V14.0264L23.2932 15.373Z" fill="white" stroke="#737791" stroke-width="1.5" stroke-linecap="round" stroke-linejoin="round"/>
<path d="M29.2799 19.8264C29.1999 21.3997 27.8932 22.6664 26.2932 22.6664C24.6399 22.6664 23.2932 21.3197 23.2932 19.6664V15.373L25.9999 15.973C27.7599 16.3597 29.1999 17.2664 29.2799 19.8264Z" fill="white" stroke="#737791" stroke-width="1.5" stroke-linecap="round" stroke-linejoin="round"/>
</svg>
