<svg width="32" height="32" viewBox="0 0 32 32" fill="none" xmlns="http://www.w3.org/2000/svg">
<path d="M10.6667 2.66667V6.66667" stroke="#737791" stroke-width="1.5" stroke-miterlimit="10" stroke-linecap="round" stroke-linejoin="round"/>
<path d="M21.3333 2.66667V6.66667" stroke="#737791" stroke-width="1.5" stroke-miterlimit="10" stroke-linecap="round" stroke-linejoin="round"/>
<path d="M21.3333 4.66667C25.7733 4.90667 28 6.6 28 12.8667V21.1067C28 26.6 26.6667 29.3467 20 29.3467H12C5.33333 29.3467 4 26.6 4 21.1067V12.8667C4 6.6 6.22667 4.92 10.6667 4.66667H21.3333Z" stroke="#737791" stroke-width="1.5" stroke-miterlimit="10" stroke-linecap="round" stroke-linejoin="round"/>
<path d="M27.6666 23.4667H4.33331" stroke="#737791" stroke-width="1.5" stroke-miterlimit="10" stroke-linecap="round" stroke-linejoin="round"/>
<path d="M16 11C14.36 11 12.9734 11.8933 12.9734 13.6267C12.9734 14.4533 13.36 15.08 13.9467 15.48C13.1334 15.96 12.6667 16.7333 12.6667 17.64C12.6667 19.2933 13.9334 20.32 16 20.32C18.0534 20.32 19.3334 19.2933 19.3334 17.64C19.3334 16.7333 18.8667 15.9467 18.04 15.48C18.64 15.0667 19.0134 14.4533 19.0134 13.6267C19.0134 11.8933 17.64 11 16 11ZM16 14.7867C15.3067 14.7867 14.8 14.3733 14.8 13.72C14.8 13.0533 15.3067 12.6667 16 12.6667C16.6934 12.6667 17.2 13.0533 17.2 13.72C17.2 14.3733 16.6934 14.7867 16 14.7867ZM16 18.6667C15.12 18.6667 14.48 18.2267 14.48 17.4267C14.48 16.6267 15.12 16.2 16 16.2C16.88 16.2 17.52 16.64 17.52 17.4267C17.52 18.2267 16.88 18.6667 16 18.6667Z" fill="#737791"/>
</svg>
