<svg width="32" height="32" viewBox="0 0 32 32" fill="none" xmlns="http://www.w3.org/2000/svg">
<path d="M10.6665 2.66663V6.66663" stroke="#737791" stroke-width="1.5" stroke-miterlimit="10" stroke-linecap="round" stroke-linejoin="round"/>
<path d="M21.3335 2.66663V6.66663" stroke="#737791" stroke-width="1.5" stroke-miterlimit="10" stroke-linecap="round" stroke-linejoin="round"/>
<path d="M21.3333 4.66663C25.7733 4.90663 28 6.59996 28 12.8666V21.1066C28 26.6 26.6667 29.3466 20 29.3466H12C5.33333 29.3466 4 26.6 4 21.1066V12.8666C4 6.59996 6.22667 4.91996 10.6667 4.66663H21.3333Z" fill="white" stroke="#737791" stroke-width="1.5" stroke-miterlimit="10" stroke-linecap="round" stroke-linejoin="round"/>
<path d="M27.6668 23.4667H4.3335" stroke="#737791" stroke-width="1.5" stroke-miterlimit="10" stroke-linecap="round" stroke-linejoin="round"/>
<path d="M15.9998 11C14.3598 11 12.9732 11.8933 12.9732 13.6267C12.9732 14.4533 13.3598 15.08 13.9465 15.48C13.1332 15.96 12.6665 16.7333 12.6665 17.64C12.6665 19.2933 13.9332 20.32 15.9998 20.32C18.0532 20.32 19.3332 19.2933 19.3332 17.64C19.3332 16.7333 18.8665 15.9467 18.0398 15.48C18.6398 15.0667 19.0132 14.4533 19.0132 13.6267C19.0132 11.8933 17.6398 11 15.9998 11ZM15.9998 14.7867C15.3065 14.7867 14.7998 14.3733 14.7998 13.72C14.7998 13.0533 15.3065 12.6667 15.9998 12.6667C16.6932 12.6667 17.1998 13.0533 17.1998 13.72C17.1998 14.3733 16.6932 14.7867 15.9998 14.7867ZM15.9998 18.6667C15.1198 18.6667 14.4798 18.2267 14.4798 17.4267C14.4798 16.6267 15.1198 16.2 15.9998 16.2C16.8798 16.2 17.5198 16.64 17.5198 17.4267C17.5198 18.2267 16.8798 18.6667 15.9998 18.6667Z" fill="#737791"/>
</svg>
