<svg width="20" height="21" viewBox="0 0 20 21" fill="none" xmlns="http://www.w3.org/2000/svg">
<path d="M3.47586 5.28595C2.43607 6.66142 1.82202 8.37257 1.82202 10.2229C1.82202 14.7423 5.48993 18.4102 10.0093 18.4102C14.5287 18.4102 18.1966 14.7423 18.1966 10.2229C18.1966 5.70351 14.5287 2.0356 10.0093 2.0356" stroke="#36435C" stroke-width="1.22809" stroke-linecap="round" stroke-linejoin="round"/>
<path d="M4.2782 10.2229C4.2782 13.3914 6.84082 15.954 10.0093 15.954C13.1778 15.954 15.7404 13.3914 15.7404 10.2229C15.7404 7.05441 13.1778 4.49178 10.0093 4.49178" stroke="#36435C" stroke-width="1.22809" stroke-linecap="round" stroke-linejoin="round"/>
<path d="M10.0093 13.4978C11.8187 13.4978 13.2843 12.0323 13.2843 10.2229C13.2843 8.41349 11.8187 6.94797 10.0093 6.94797" stroke="#36435C" stroke-width="1.22809" stroke-linecap="round" stroke-linejoin="round"/>
</svg>
