<svg width="20" height="14" viewBox="0 0 20 14" fill="none" xmlns="http://www.w3.org/2000/svg">
<path d="M9.74981 10.6645C10.7954 10.6645 11.6827 10.3 12.4116 9.57101C13.1406 8.84204 13.5051 7.95477 13.5051 6.90918C13.5051 5.8636 13.1406 4.97632 12.4116 4.24736C11.6827 3.51839 10.7954 3.15391 9.74981 3.15391C8.70422 3.15391 7.81695 3.51839 7.08798 4.24736C6.35902 4.97632 5.99453 5.8636 5.99453 6.90918C5.99453 7.95477 6.35902 8.84204 7.08798 9.57101C7.81695 10.3 8.70422 10.6645 9.74981 10.6645ZM9.74981 9.38325C9.05766 9.38325 8.47228 9.14394 7.99367 8.66533C7.51505 8.18671 7.27574 7.60133 7.27574 6.90918C7.27574 6.21703 7.51505 5.63165 7.99367 5.15304C8.47228 4.67443 9.05766 4.43512 9.74981 4.43512C10.442 4.43512 11.0273 4.67443 11.506 5.15304C11.9846 5.63165 12.2239 6.21703 12.2239 6.90918C12.2239 7.60133 11.9846 8.18671 11.506 8.66533C11.0273 9.14394 10.442 9.38325 9.74981 9.38325ZM9.74981 13.5361C7.59973 13.5361 5.65582 12.925 3.91809 11.7027C2.18035 10.4804 0.884414 8.88254 0.0302734 6.90918C0.884414 4.93582 2.18035 3.33799 3.91809 2.11568C5.65582 0.893379 7.59973 0.282227 9.74981 0.282227C11.8999 0.282227 13.8438 0.893379 15.5815 2.11568C17.3193 3.33799 18.6152 4.93582 19.4693 6.90918C18.6152 8.88254 17.3193 10.4804 15.5815 11.7027C13.8438 12.925 11.8999 13.5361 9.74981 13.5361ZM9.74981 12.2107C11.5317 12.2107 13.1701 11.7285 14.6648 10.7639C16.1595 9.79927 17.2972 8.51438 18.0777 6.90918C17.2972 5.30399 16.1595 4.01909 14.6648 3.0545C13.1701 2.08991 11.5317 1.60762 9.74981 1.60762C7.96789 1.60762 6.32956 2.08991 4.83482 3.0545C3.34007 4.01909 2.19508 5.30399 1.39984 6.90918C2.19508 8.51438 3.34007 9.79927 4.83482 10.7639C6.32956 11.7285 7.96789 12.2107 9.74981 12.2107Z" fill="#3E445E"/>
</svg>
