<svg width="20" height="19" viewBox="0 0 20 19" fill="none" xmlns="http://www.w3.org/2000/svg">
<path d="M13.2091 10.7814L12.2296 9.80199C12.6155 8.74832 12.4151 7.87274 11.6286 7.17525C10.842 6.47775 9.98873 6.29967 9.06863 6.641L8.08917 5.66154C8.34145 5.49829 8.62342 5.37957 8.93507 5.30537C9.24671 5.23117 9.56578 5.19407 9.89227 5.19407C10.9459 5.19407 11.8401 5.56136 12.5747 6.29596C13.3093 7.03056 13.6765 7.92469 13.6765 8.97835C13.6765 9.30483 13.6357 9.62761 13.5541 9.94668C13.4725 10.2657 13.3575 10.544 13.2091 10.7814ZM16.0807 13.653L15.1903 12.7626C15.9174 12.2284 16.5519 11.6311 17.0935 10.9707C17.6352 10.3103 18.0322 9.64616 18.2845 8.97835C17.5425 7.33107 16.4294 6.02883 14.9454 5.07163C13.4614 4.11443 11.8512 3.63583 10.1149 3.63583C9.49158 3.63583 8.85345 3.69519 8.20047 3.81392C7.5475 3.93264 7.03551 4.07362 6.6645 4.23687L5.64052 3.19062C6.15993 2.95318 6.82403 2.74541 7.63283 2.56733C8.44163 2.38924 9.23187 2.3002 10.0036 2.3002C12.1257 2.3002 14.0661 2.90495 15.8247 4.11443C17.5833 5.32392 18.8707 6.94522 19.6869 8.97835C19.301 9.92813 18.8039 10.7963 18.1954 11.5828C17.587 12.3694 16.8821 13.0594 16.0807 13.653ZM17.3718 18.6839L13.632 15.0109C13.1126 15.2187 12.5264 15.3782 11.8735 15.4895C11.2205 15.6008 10.5601 15.6565 9.89227 15.6565C7.72558 15.6565 5.75924 15.0517 3.99324 13.8423C2.22724 12.6328 0.928714 11.0115 0.0976562 8.97835C0.394463 8.20665 0.806282 7.4535 1.33311 6.71891C1.85994 5.98431 2.50179 5.28311 3.25864 4.61529L0.453824 1.81047L1.38876 0.853271L18.2399 17.7045L17.3718 18.6839ZM4.17132 5.55023C3.62223 5.95092 3.09169 6.47775 2.5797 7.13073C2.06771 7.7837 1.70041 8.39958 1.47781 8.97835C2.23466 10.6256 3.37366 11.9279 4.89479 12.8851C6.41592 13.8423 8.14111 14.3209 10.0704 14.3209C10.5601 14.3209 11.0424 14.2912 11.5173 14.2318C11.9922 14.1725 12.3483 14.0834 12.5858 13.9647L11.1611 12.54C10.9979 12.6142 10.7975 12.6699 10.5601 12.707C10.3226 12.7441 10.1 12.7626 9.89227 12.7626C8.85345 12.7626 7.96303 12.399 7.22101 11.6719C6.47899 10.9447 6.10799 10.0469 6.10799 8.97835C6.10799 8.75574 6.12654 8.53314 6.16364 8.31053C6.20074 8.08793 6.25639 7.88758 6.33059 7.7095L4.17132 5.55023Z" fill="#3E445E"/>
</svg>
