<svg width="46" height="44" viewBox="0 0 46 44" fill="none" xmlns="http://www.w3.org/2000/svg">
<rect width="46" height="44" rx="10" fill="#36435C"/>
<path d="M14.35 12H23.25C23.99 12 24.6 12.61 24.6 13.35V14.83C24.6 15.37 24.26 16.04 23.93 16.38L21.03 18.94C20.63 19.28 20.36 19.95 20.36 20.49V23.39C20.36 23.79 20.09 24.33 19.75 24.54L18.81 25.15C17.93 25.69 16.72 25.08 16.72 24V20.43C16.72 19.96 16.45 19.35 16.18 19.01L13.62 16.31C13.28 15.97 13.01 15.37 13.01 14.96V13.41C13 12.61 13.61 12 14.35 12Z" stroke="#EAF1FF" stroke-width="1.5" stroke-miterlimit="10" stroke-linecap="round" stroke-linejoin="round"/>
<path d="M13 22.0002V25.0002C13 30.0002 15 32.0002 20 32.0002H26C31 32.0002 33 30.0002 33 25.0002V19.0002C33 15.8802 32.22 13.9202 30.41 12.9002C29.9 12.6102 28.88 12.3902 27.95 12.2402" stroke="#EAF1FF" stroke-width="1.5" stroke-linecap="round" stroke-linejoin="round"/>
<path d="M24 23H29" stroke="#EAF1FF" stroke-width="1.5" stroke-linecap="round" stroke-linejoin="round"/>
<path d="M22 27H29" stroke="#EAF1FF" stroke-width="1.5" stroke-linecap="round" stroke-linejoin="round"/>
</svg>
