<?xml version="1.0" encoding="UTF-8"?>
<svg id="Layer_2" data-name="Layer 2" xmlns="http://www.w3.org/2000/svg" xmlns:xlink="http://www.w3.org/1999/xlink" viewBox="0 0 18.77 18.77">
  <defs>
    <style>
      .cls-1 {
        fill: #fff;
      }

      .cls-2 {
        clip-path: url(#clippath);
      }

      .cls-3 {
        fill: none;
      }
    </style>
    <clipPath id="clippath">
      <rect class="cls-3" width="18.77" height="18.77"/>
    </clipPath>
  </defs>
  <g id="Layer_1-2" data-name="Layer 1">
    <g class="cls-2">
      <path class="cls-1" d="M17.84,14.5c0,.44-.09,.87-.25,1.28-.17,.41-.41,.77-.72,1.08s-.67,.55-1.08,.72-.83,.25-1.28,.25H4.29c-.44,0-.87-.09-1.28-.25-.41-.17-.77-.41-1.08-.72-.31-.31-.55-.67-.72-1.08-.17-.41-.25-.83-.25-1.28V4.29c0-.44,.09-.87,.25-1.28,.17-.41,.41-.77,.72-1.08,.31-.31,.67-.55,1.08-.72,.41-.17,.83-.25,1.28-.26H14.5c.44,0,.87,.09,1.28,.26,.41,.17,.77,.41,1.08,.72,.31,.31,.55,.67,.72,1.08,.17,.41,.25,.83,.25,1.28V14.5ZM14.5,0H4.29c-.28,0-.56,.03-.83,.08s-.54,.14-.8,.24c-.26,.11-.51,.24-.74,.4-.23,.16-.45,.33-.65,.53-.2,.2-.38,.41-.53,.65-.16,.23-.29,.48-.4,.74s-.19,.53-.24,.8c-.06,.28-.08,.55-.08,.83V14.5c0,.28,.03,.56,.08,.83,.06,.28,.14,.54,.24,.8,.11,.26,.24,.51,.4,.74,.16,.23,.33,.45,.53,.65,.2,.2,.41,.38,.65,.53,.23,.16,.48,.29,.74,.4,.26,.11,.53,.19,.8,.24,.28,.06,.55,.08,.83,.08H14.5c.28,0,.56-.03,.83-.08,.28-.05,.54-.14,.8-.24,.26-.11,.51-.24,.74-.4,.23-.16,.45-.33,.65-.53,.2-.2,.38-.41,.53-.65,.16-.23,.29-.48,.4-.74,.11-.26,.19-.53,.24-.8,.06-.28,.08-.55,.08-.83V4.29c0-.28-.03-.56-.08-.83-.06-.28-.14-.54-.24-.8s-.24-.51-.4-.74c-.16-.23-.33-.45-.53-.65-.2-.2-.41-.38-.65-.53-.23-.16-.48-.29-.74-.4-.26-.11-.53-.19-.8-.24-.28-.06-.55-.08-.83-.08Z"/>
      <path class="cls-1" d="M16,4.11c0,.26-.09,.48-.28,.67s-.41,.28-.67,.28-.48-.09-.67-.28c-.18-.18-.28-.41-.28-.67s.09-.48,.28-.67c.18-.18,.41-.28,.67-.28s.48,.09,.67,.28c.18,.18,.28,.41,.28,.67Z"/>
      <path class="cls-1" d="M9.39,14.03c-.3,0-.61-.03-.9-.09s-.59-.15-.87-.26c-.28-.12-.55-.26-.8-.43s-.49-.36-.7-.58c-.22-.22-.41-.45-.58-.7-.17-.25-.31-.52-.43-.8-.12-.28-.2-.57-.26-.87-.06-.3-.09-.6-.09-.9s.03-.61,.09-.9,.15-.59,.26-.87c.12-.28,.26-.55,.43-.8,.17-.25,.36-.49,.58-.7,.22-.22,.45-.41,.7-.58,.25-.17,.52-.31,.8-.43,.28-.12,.57-.2,.87-.26,.3-.06,.6-.09,.9-.09s.61,.03,.9,.09c.3,.06,.59,.15,.87,.26,.28,.12,.55,.26,.8,.43,.25,.17,.49,.36,.7,.58s.41,.45,.58,.7c.17,.25,.31,.52,.43,.8,.12,.28,.2,.57,.26,.87,.06,.3,.09,.6,.09,.9,0,.3-.03,.61-.09,.9-.06,.3-.15,.59-.26,.87s-.26,.55-.43,.8c-.17,.25-.36,.49-.58,.7s-.45,.41-.7,.58c-.25,.17-.52,.31-.8,.43-.28,.12-.57,.2-.87,.26-.3,.06-.6,.09-.9,.09Zm0-10.21c-.37,0-.73,.04-1.09,.11-.36,.07-.71,.18-1.05,.32-.34,.14-.66,.31-.96,.52-.3,.2-.59,.43-.85,.69-.26,.26-.49,.54-.69,.85-.2,.3-.38,.63-.52,.96-.14,.34-.25,.69-.32,1.05s-.11,.72-.11,1.09,.04,.73,.11,1.09c.07,.36,.18,.71,.32,1.05,.14,.34,.31,.66,.52,.96s.43,.59,.69,.85,.54,.49,.85,.69c.3,.2,.63,.38,.96,.52,.34,.14,.69,.25,1.05,.32,.36,.07,.72,.11,1.09,.11s.73-.04,1.09-.11c.36-.07,.71-.18,1.05-.32,.34-.14,.66-.31,.96-.52,.3-.2,.59-.43,.85-.69s.49-.54,.69-.85,.38-.63,.52-.96,.25-.69,.32-1.05c.07-.36,.11-.72,.11-1.09,0-.37-.04-.73-.11-1.09-.07-.36-.18-.71-.32-1.05-.14-.34-.31-.66-.52-.96-.2-.3-.43-.59-.69-.84-.26-.26-.54-.49-.84-.69s-.63-.38-.96-.52c-.34-.14-.69-.25-1.05-.32s-.72-.11-1.09-.11Z"/>
    </g>
  </g>
</svg>