<?xml version="1.0" encoding="UTF-8"?>
<svg id="Layer_2" data-name="Layer 2" xmlns="http://www.w3.org/2000/svg" xmlns:xlink="http://www.w3.org/1999/xlink" viewBox="0 0 15.76 15.76">
  <defs>
    <style>
      .cls-1 {
        fill: #fff;
      }

      .cls-2 {
        clip-path: url(#clippath);
      }

      .cls-3 {
        fill: none;
      }
    </style>
    <clipPath id="clippath">
      <rect class="cls-3" width="15.76" height="15.76"/>
    </clipPath>
  </defs>
  <g id="Layer_1-2" data-name="Layer 1">
    <g class="cls-2">
      <path class="cls-1" d="M1.96-.02C1-.02,.22,.76,.22,1.72s.78,1.74,1.74,1.74,1.74-.78,1.74-1.74S2.92-.02,1.96-.02Z"/>
      <rect class="cls-1" x=".22" y="4.88" width="3.47" height="10.82" rx=".1" ry=".1"/>
      <path class="cls-1" d="M5.64,4.88c-.06,0-.1,.05-.1,.1V15.6c0,.06,.05,.1,.1,.1h3.27c.06,0,.1-.05,.1-.1v-5.72c0-.41,.16-.8,.45-1.08,.29-.29,.68-.45,1.08-.45s.8,.16,1.08,.45c.29,.29,.45,.68,.45,1.08v5.72c0,.06,.05,.1,.1,.1h3.27c.06,0,.1-.05,.1-.1v-7.04c0-1.98-1.72-3.53-3.7-3.35-.61,.06-1.21,.21-1.77,.45l-1.07,.46v-1.13c0-.06-.05-.1-.1-.1h-3.27Z"/>
    </g>
  </g>
</svg>