<svg width="112" height="112" viewBox="0 0 112 112" fill="none" xmlns="http://www.w3.org/2000/svg">
<path d="M0.883789 10.67C0.883789 5.23395 5.29059 0.827148 10.7267 0.827148H101.773C107.209 0.827148 111.616 5.23395 111.616 10.67V101.717C111.616 107.153 107.209 111.559 101.773 111.559H10.7267C5.29059 111.559 0.883789 107.153 0.883789 101.717V10.67Z" fill="#D9D9D9"/>
<path d="M35.6562 47.1951V63.5835H32.5557V47.1951H35.6562Z" fill="black"/>
<path d="M44.1675 63.7828C42.9864 63.7828 41.9234 63.5244 40.9784 63.0076C40.0335 62.4761 39.2879 61.7305 38.7416 60.7709C38.2101 59.8112 37.9444 58.7038 37.9444 57.4489C37.9444 56.1939 38.2175 55.0866 38.7638 54.1269C39.3248 53.1672 40.0852 52.429 41.0449 51.9123C42.0046 51.3808 43.075 51.115 44.2561 51.115C45.4373 51.115 46.5077 51.3808 47.4673 51.9123C48.427 52.429 49.18 53.1672 49.7263 54.1269C50.2873 55.0866 50.5679 56.1939 50.5679 57.4489C50.5679 58.7038 50.2799 59.8112 49.7041 60.7709C49.1431 61.7305 48.3754 62.4761 47.4009 63.0076C46.4412 63.5244 45.3634 63.7828 44.1675 63.7828ZM44.1675 61.0809C44.7286 61.0809 45.2527 60.948 45.7399 60.6823C46.2419 60.4017 46.6405 59.9883 46.9358 59.4421C47.2311 58.8958 47.3788 58.2314 47.3788 57.4489C47.3788 56.2825 47.0687 55.3893 46.4486 54.7692C45.8433 54.1343 45.0977 53.8169 44.2118 53.8169C43.326 53.8169 42.5804 54.1343 41.975 54.7692C41.3845 55.3893 41.0892 56.2825 41.0892 57.4489C41.0892 58.6153 41.3771 59.5159 41.9529 60.1507C42.5434 60.7709 43.2817 61.0809 44.1675 61.0809Z" fill="black"/>
<path d="M57.648 51.115C58.5634 51.115 59.368 51.2995 60.0619 51.6687C60.7559 52.023 61.3021 52.4881 61.7008 53.0639V51.3143H64.8234V63.672C64.8234 64.8089 64.5946 65.8202 64.1369 66.7061C63.6792 67.6067 62.9926 68.3154 62.0773 68.8322C61.1619 69.3637 60.0546 69.6294 58.7553 69.6294C57.0131 69.6294 55.581 69.2234 54.4589 68.4114C53.3516 67.5993 52.7241 66.492 52.5764 65.0894H55.6548C55.8172 65.6505 56.1642 66.0934 56.6957 66.4182C57.242 66.7578 57.899 66.9276 58.6667 66.9276C59.5673 66.9276 60.2982 66.6544 60.8592 66.1081C61.4203 65.5766 61.7008 64.7646 61.7008 63.672V61.7674C61.3021 62.3432 60.7485 62.8231 60.0398 63.207C59.3459 63.5908 58.5486 63.7828 57.648 63.7828C56.6145 63.7828 55.6696 63.517 54.8132 62.9855C53.9569 62.454 53.2777 61.7084 52.7757 60.7487C52.2885 59.7743 52.0449 58.6596 52.0449 57.4046C52.0449 56.1644 52.2885 55.0644 52.7757 54.1048C53.2777 53.1451 53.9495 52.4069 54.7911 51.8901C55.6474 51.3734 56.5997 51.115 57.648 51.115ZM61.7008 57.4489C61.7008 56.6959 61.5531 56.0537 61.2578 55.5221C60.9626 54.9759 60.5639 54.5625 60.0619 54.2819C59.5599 53.9867 59.0211 53.839 58.4452 53.839C57.8694 53.839 57.3379 53.9793 56.8507 54.2598C56.3635 54.5403 55.9648 54.9537 55.6548 55.5C55.3595 56.0315 55.2119 56.6664 55.2119 57.4046C55.2119 58.1428 55.3595 58.7924 55.6548 59.3535C55.9648 59.8998 56.3635 60.3205 56.8507 60.6158C57.3527 60.9111 57.8842 61.0588 58.4452 61.0588C59.0211 61.0588 59.5599 60.9185 60.0619 60.638C60.5639 60.3427 60.9626 59.9293 61.2578 59.3978C61.5531 58.8515 61.7008 58.2019 61.7008 57.4489Z" fill="black"/>
<path d="M73.2996 63.7828C72.1185 63.7828 71.0555 63.5244 70.1105 63.0076C69.1656 62.4761 68.42 61.7305 67.8738 60.7709C67.3422 59.8112 67.0765 58.7038 67.0765 57.4489C67.0765 56.1939 67.3496 55.0866 67.8959 54.1269C68.4569 53.1672 69.2173 52.429 70.177 51.9123C71.1367 51.3808 72.2071 51.115 73.3882 51.115C74.5694 51.115 75.6398 51.3808 76.5995 51.9123C77.5591 52.429 78.3121 53.1672 78.8584 54.1269C79.4194 55.0866 79.7 56.1939 79.7 57.4489C79.7 58.7038 79.4121 59.8112 78.8363 60.7709C78.2752 61.7305 77.5075 62.4761 76.533 63.0076C75.5733 63.5244 74.4955 63.7828 73.2996 63.7828ZM73.2996 61.0809C73.8607 61.0809 74.3848 60.948 74.872 60.6823C75.374 60.4017 75.7727 59.9883 76.0679 59.4421C76.3632 58.8958 76.5109 58.2314 76.5109 57.4489C76.5109 56.2825 76.2008 55.3893 75.5807 54.7692C74.9754 54.1343 74.2298 53.8169 73.3439 53.8169C72.4581 53.8169 71.7125 54.1343 71.1071 54.7692C70.5166 55.3893 70.2213 56.2825 70.2213 57.4489C70.2213 58.6153 70.5092 59.5159 71.085 60.1507C71.6756 60.7709 72.4138 61.0809 73.2996 61.0809Z" fill="black"/>
</svg>
