<svg width="25" height="25" viewBox="0 0 25 25" fill="none" xmlns="http://www.w3.org/2000/svg">
<path d="M24.5917 13.3767C23.6696 13.3767 22.7544 13.3767 21.8239 13.3767C21.8239 13.9689 21.8239 14.536 21.8239 15.1288C22.7433 15.1288 23.6578 15.1288 24.5917 15.1288C24.5917 17.0723 24.5917 18.9908 24.5917 20.9377C19.3424 20.9377 14.0959 20.9377 8.82018 20.9377C8.82018 22.3043 8.82018 23.6417 8.82018 25C7.09098 25 5.3902 25 3.6596 25C3.6596 24.8891 3.6596 24.7878 3.6596 24.6866C3.6596 20.6832 3.65683 16.6791 3.66584 12.6758C3.66653 12.4123 3.58958 12.2702 3.36493 12.1225C0.188017 10.039 0.218523 5.47605 3.41624 3.35372C3.5868 3.2407 3.76014 3.13254 3.97092 2.99734C3.97092 3.19771 3.97092 3.35025 3.97092 3.50348C3.97092 4.2835 3.96537 5.06351 3.9723 5.84353C3.98132 6.82877 4.7017 7.54916 5.68625 7.55193C6.17922 7.55332 6.67913 7.57412 7.16308 7.50201C7.9639 7.38275 8.56711 6.56461 8.45964 5.79984C7.84326 5.79984 7.2234 5.79984 6.5876 5.79984C6.5876 3.8557 6.5876 1.93721 6.5876 0C12.5878 0 18.5797 0 24.591 0C24.591 1.92057 24.591 3.83975 24.591 5.79291C23.6779 5.79291 22.7571 5.79291 21.8218 5.79291C21.8218 6.39474 21.8218 6.96189 21.8218 7.55124C22.7426 7.55124 23.6578 7.55124 24.591 7.55124C24.5917 9.50024 24.5917 11.4257 24.5917 13.3767ZM8.01659 24.213C8.01659 24.0799 8.01659 23.9759 8.01659 23.8726C8.01659 19.9649 8.01867 16.0579 8.01174 12.1502C8.01105 11.9263 8.06652 11.8077 8.28007 11.6954C10.8857 10.3232 11.4833 6.89672 9.50244 4.74942C9.44212 4.68425 9.37347 4.62601 9.26947 4.52617C9.26947 5.04618 9.27849 5.50379 9.26809 5.9607C9.24174 7.12622 8.36604 8.13434 7.21231 8.28896C6.75193 8.35067 6.27976 8.33472 5.81244 8.33611C4.23161 8.33957 3.1909 7.29747 3.18951 5.71942C3.18882 5.34224 3.18951 4.96436 3.18951 4.58718C3.1701 4.57678 3.15069 4.56569 3.13127 4.55529C3.05917 4.63641 2.98775 4.71822 2.91564 4.79935C1.01726 6.9196 1.58233 10.2733 4.08254 11.635C4.3689 11.7911 4.4521 11.9575 4.4514 12.2702C4.44031 16.1432 4.44447 20.0155 4.44447 23.8886C4.44447 23.9905 4.44447 24.0931 4.44447 24.2137C5.64049 24.213 6.81433 24.213 8.01659 24.213ZM8.48391 5.00319C8.48391 4.34312 8.48391 3.69415 8.48391 3.0112C9.31662 3.49308 10.0245 4.03874 10.5321 4.80697C10.6347 4.96297 10.7414 5.01983 10.928 5.01983C15.1303 5.01428 19.332 5.01567 23.5344 5.01567C23.6259 5.01567 23.7181 5.01567 23.811 5.01567C23.811 3.59154 23.811 2.20137 23.811 0.809134C18.3225 0.809134 12.8513 0.809134 7.37247 0.809134C7.37247 2.21593 7.37247 3.6054 7.37247 5.00319C7.74064 5.00319 8.09217 5.00319 8.48391 5.00319ZM8.8292 15.9345C8.8292 17.3621 8.8292 18.7599 8.8292 20.1639C13.8372 20.1639 18.8252 20.1639 23.8214 20.1639C23.8214 18.7474 23.8214 17.3475 23.8214 15.9345C18.8189 15.9345 13.831 15.9345 8.8292 15.9345ZM8.83544 12.5704C13.8261 12.5704 18.8203 12.5704 23.8145 12.5704C23.8145 11.1559 23.8145 9.76371 23.8145 8.3576C19.6891 8.3576 15.5768 8.3576 11.4591 8.3576C11.441 8.42555 11.4202 8.4824 11.4105 8.54134C11.1581 10.1319 10.3428 11.3522 8.98866 12.2147C8.84722 12.3055 8.75848 12.3908 8.83544 12.5704ZM10.168 15.1226C13.7949 15.1226 17.4003 15.1226 21.0106 15.1226C21.0106 14.5367 21.0106 13.9695 21.0106 13.3961C17.3899 13.3961 13.7845 13.3961 10.168 13.3961C10.168 13.9744 10.168 14.5346 10.168 15.1226ZM21.0175 5.81926C17.6978 5.81926 14.4051 5.81926 11.1401 5.81926C11.2635 6.40236 11.3842 6.97299 11.5041 7.54292C14.663 7.54292 17.8372 7.54292 21.0168 7.54292C21.0175 6.96189 21.0175 6.40028 21.0175 5.81926ZM8.82781 13.3913C8.82781 13.9883 8.82781 14.5533 8.82781 15.126C9.0157 15.126 9.18488 15.126 9.36654 15.126C9.36654 14.5402 9.36654 13.9689 9.36654 13.3913C9.17864 13.3913 9.00946 13.3913 8.82781 13.3913Z" fill="#65697E"/>
<path d="M6.22004 20.1763C7.08742 20.1721 7.79325 20.8634 7.80573 21.7308C7.81821 22.5968 7.09921 23.3192 6.22559 23.3178C5.36376 23.3165 4.65516 22.6092 4.65308 21.7488C4.651 20.8856 5.35336 20.1804 6.22004 20.1763ZM7.03126 21.7252C7.02571 21.2919 6.66309 20.9327 6.23183 20.9327C5.79155 20.9327 5.41853 21.3148 5.4324 21.7516C5.44627 22.1849 5.81582 22.5392 6.2457 22.5323C6.67349 22.5253 7.03681 22.1523 7.03126 21.7252Z" fill="#65697E"/>
<path d="M19.6177 3.26915C19.6177 3.02024 19.6177 2.78172 19.6177 2.52588C20.6535 2.52588 21.6797 2.52588 22.7218 2.52588C22.7218 2.76855 22.7218 3.00775 22.7218 3.26915C21.7019 3.26915 20.6764 3.26915 19.6177 3.26915Z" fill="#65697E"/>
<path d="M19.6177 18.413C19.6177 18.1641 19.6177 17.9249 19.6177 17.667C20.6459 17.667 21.6714 17.667 22.7169 17.667C22.7169 17.9027 22.7169 18.1482 22.7169 18.413C21.6922 18.413 20.6612 18.413 19.6177 18.413Z" fill="#65697E"/>
<path d="M19.6177 10.8344C19.6177 10.5827 19.6177 10.3442 19.6177 10.0884C20.6563 10.0884 21.6818 10.0884 22.7225 10.0884C22.7225 10.3359 22.7225 10.5744 22.7225 10.8344C21.6977 10.8344 20.6729 10.8344 19.6177 10.8344Z" fill="#65697E"/>
</svg>
