<?xml version="1.0" encoding="UTF-8"?>
<svg id="Layer_2" data-name="Layer 2" xmlns="http://www.w3.org/2000/svg" xmlns:xlink="http://www.w3.org/1999/xlink" viewBox="0 0 15.01 10.51">
  <defs>
    <style>
      .cls-1 {
        fill: #fff;
      }

      .cls-2 {
        clip-path: url(#clippath);
      }

      .cls-3 {
        fill: none;
      }
    </style>
    <clipPath id="clippath">
      <rect class="cls-3" width="15.01" height="10.51"/>
    </clipPath>
  </defs>
  <g id="Layer_1-2" data-name="Layer 1">
    <g class="cls-2">
      <path class="cls-1" d="M7.24,10.51c-1.15,0-2.3-.01-3.45,0-.4,0-.52-.13-.48-.53,.09-.83,.19-1.66,.35-2.48,.09-.48,.35-.78,.78-.96,.14-.06,.28-.09,.42-.15,.52-.23,.9-.27,1.32,.3,.62,.83,1.62,.73,2.28-.14,.23-.3,.39-.42,.81-.28,.49,.15,.89,.41,1.3,.68,.22,.14,.25,.37,.28,.58,.14,.86,.24,1.72,.36,2.58,.05,.38-.21,.4-.48,.4-1.16,0-2.33,0-3.49,0Z"/>
      <path class="cls-1" d="M9.46,2.24c-.03,.18-.05,.36-.08,.53-.03,.15-.02,.23,.1,.37,.21,.23,.15,.56-.11,.75-.29,.22-.47,.5-.64,.82-.32,.6-.75,1.15-1.49,1.14-.71,0-1.14-.52-1.47-1.11-.19-.34-.36-.66-.7-.89-.25-.16-.33-.48-.06-.72,.18-.16,.12-.34,.08-.49-.29-1.17,.54-1.95,1.45-2.28,1.02-.37,2.22,.15,2.73,1.13q.15,.29,.18,.74Z"/>
      <path class="cls-1" d="M4.34,3.31c-.04,.48,.06,.93,.34,1.32,.15,.21,.07,.3-.14,.34-.13,.02-.27,.03-.4,.02-.39-.03-.71,.07-.87,.45-.09,.2-.29,.29-.43,.24-.38-.15-.82-.1-1.14-.43-.28-.29-.71-.14-1.06-.25-.24-.07-.39-.17-.23-.39,.32-.45,.31-.95,.29-1.46-.02-.87,.37-1.43,1.14-1.83,1.03-.55,2.07,.29,2.37,1.08,.11,.29,.17,.6,.12,.92Z"/>
      <path class="cls-1" d="M12.75,.71c.09,.49,.54,.7,.78,1.08,.27,.44,.45,.87,.3,1.39-.06,.2-.12,.41-.05,.62,.04,.12,0,.24-.07,.29-.44,.28-.54,.8-.88,1.15-.66,.68-1.56,.55-1.98-.31-.14-.29-.23-.59-.58-.73-.16-.07-.3-.33-.22-.5,.13-.29,.06-.55,0-.82-.15-.71,.69-1.66,1.43-1.79,.33-.06,.62-.39,1-.15,.03,.02,.16-.13,.26-.22Z"/>
      <path class="cls-1" d="M13.29,9.86c-.42,0-.84-.01-1.25,0-.28,.01-.35-.1-.36-.37-.04-.67-.14-1.34-.26-2.01-.09-.52-.33-.93-.78-1.2-.08-.05-.23-.08-.18-.21,.04-.11,.16-.11,.27-.12,.38-.04,.79,.12,.99,.34,.32,.34,.53,.17,.74,0,.84-.68,2.13-.23,2.3,.85,.12,.76,.16,1.54,.22,2.31,.02,.27-.09,.42-.39,.41-.43-.01-.87,0-1.3,0Z"/>
      <path class="cls-1" d="M2.9,6.78c-.11,.15-.18,.23-.25,.33,.05,0,.11,.02,.13,0,.31-.26,.52-.57,.63-.96,.02-.08,.02-.2,.15-.16,.1,.03,.2,.08,.27,.15,.06,.06,.03,.15-.04,.19-.9,.67-.75,1.71-.89,2.64-.13,.89-.08,.92-.97,.89-.56-.02-1.12,.09-1.68-.08-.19-.06-.25-.09-.19-.29,.2-.72,.2-1.48,.31-2.22,.1-.76,.37-1.03,.85-1.18,.14-.04,.27-.05,.3,.08,.12,.67,.61,.6,1.09,.59,.07,0,.15,0,.3,.01Z"/>
    </g>
  </g>
</svg>