<svg width="32" height="32" viewBox="0 0 32 32" fill="none" xmlns="http://www.w3.org/2000/svg">
<path d="M23.9999 9.54651C23.9199 9.53318 23.8266 9.53318 23.7466 9.54651C21.9066 9.47984 20.4399 7.97317 20.4399 6.10651C20.4399 4.19984 21.9733 2.6665 23.8799 2.6665C25.7866 2.6665 27.3199 4.21317 27.3199 6.10651C27.3066 7.97317 25.8399 9.47984 23.9999 9.54651Z" fill="white" stroke="#737791" stroke-width="1.5" stroke-linecap="round" stroke-linejoin="round"/>
<path d="M22.6267 19.2534C24.4533 19.5601 26.4667 19.2401 27.88 18.2934C29.76 17.0401 29.76 14.9867 27.88 13.7334C26.4533 12.7867 24.4133 12.4667 22.5867 12.7867" stroke="#737791" stroke-width="1.5" stroke-linecap="round" stroke-linejoin="round"/>
<path d="M7.95989 9.54651C8.03989 9.53318 8.13323 9.53318 8.21323 9.54651C10.0532 9.47984 11.5199 7.97317 11.5199 6.10651C11.5199 4.19984 9.98656 2.6665 8.07989 2.6665C6.17323 2.6665 4.63989 4.21317 4.63989 6.10651C4.65323 7.97317 6.11989 9.47984 7.95989 9.54651Z" fill="white" stroke="#737791" stroke-width="1.5" stroke-linecap="round" stroke-linejoin="round"/>
<path d="M9.33325 19.2534C7.50659 19.5601 5.49325 19.2401 4.07992 18.2934C2.19992 17.0401 2.19992 14.9867 4.07992 13.7334C5.50659 12.7867 7.54658 12.4667 9.37325 12.7867" stroke="#737791" stroke-width="1.5" stroke-linecap="round" stroke-linejoin="round"/>
<path d="M15.9999 19.5065C15.9199 19.4931 15.8266 19.4931 15.7466 19.5065C13.9066 19.4398 12.4399 17.9331 12.4399 16.0665C12.4399 14.1598 13.9733 12.6265 15.8799 12.6265C17.7866 12.6265 19.3199 14.1731 19.3199 16.0665C19.3066 17.9331 17.8399 19.4531 15.9999 19.5065Z" fill="white" stroke="#737791" stroke-width="1.5" stroke-linecap="round" stroke-linejoin="round"/>
<path d="M12.12 23.7065C10.24 24.9598 10.24 27.0131 12.12 28.2665C14.2533 29.6931 17.7466 29.6931 19.88 28.2665C21.76 27.0131 21.76 24.9598 19.88 23.7065C17.76 22.2932 14.2533 22.2932 12.12 23.7065Z" fill="white" stroke="#737791" stroke-width="1.5" stroke-linecap="round" stroke-linejoin="round"/>
</svg>
