<svg width="32" height="32" viewBox="0 0 32 32" fill="none" xmlns="http://www.w3.org/2000/svg">
<path d="M24 9.54668C23.92 9.53334 23.8267 9.53334 23.7467 9.54668C21.9067 9.48001 20.44 7.97334 20.44 6.10667C20.44 4.20001 21.9733 2.66667 23.88 2.66667C25.7867 2.66667 27.32 4.21334 27.32 6.10667C27.3067 7.97334 25.84 9.48001 24 9.54668Z" stroke="#737791" stroke-width="1.5" stroke-linecap="round" stroke-linejoin="round"/>
<path d="M22.6267 19.2534C24.4533 19.56 26.4667 19.24 27.88 18.2934C29.76 17.04 29.76 14.9867 27.88 13.7334C26.4533 12.7867 24.4133 12.4667 22.5867 12.7867" stroke="#737791" stroke-width="1.5" stroke-linecap="round" stroke-linejoin="round"/>
<path d="M7.95996 9.54668C8.03996 9.53334 8.13329 9.53334 8.21329 9.54668C10.0533 9.48001 11.52 7.97334 11.52 6.10667C11.52 4.20001 9.98662 2.66667 8.07996 2.66667C6.17329 2.66667 4.63995 4.21334 4.63995 6.10667C4.65329 7.97334 6.11996 9.48001 7.95996 9.54668Z" stroke="#737791" stroke-width="1.5" stroke-linecap="round" stroke-linejoin="round"/>
<path d="M9.33331 19.2534C7.50665 19.56 5.49332 19.24 4.07998 18.2934C2.19998 17.04 2.19998 14.9867 4.07998 13.7334C5.50665 12.7867 7.54665 12.4667 9.37331 12.7867" stroke="#737791" stroke-width="1.5" stroke-linecap="round" stroke-linejoin="round"/>
<path d="M16 19.5067C15.92 19.4933 15.8267 19.4933 15.7467 19.5067C13.9067 19.44 12.44 17.9333 12.44 16.0667C12.44 14.16 13.9733 12.6267 15.88 12.6267C17.7867 12.6267 19.32 14.1733 19.32 16.0667C19.3067 17.9333 17.84 19.4533 16 19.5067Z" stroke="#737791" stroke-width="1.5" stroke-linecap="round" stroke-linejoin="round"/>
<path d="M12.12 23.7067C10.24 24.96 10.24 27.0133 12.12 28.2667C14.2534 29.6933 17.7467 29.6933 19.88 28.2667C21.76 27.0133 21.76 24.96 19.88 23.7067C17.76 22.2933 14.2534 22.2933 12.12 23.7067Z" stroke="#737791" stroke-width="1.5" stroke-linecap="round" stroke-linejoin="round"/>
</svg>
