<?xml version="1.0" encoding="UTF-8"?>
<svg id="Layer_2" data-name="Layer 2" xmlns="http://www.w3.org/2000/svg" xmlns:xlink="http://www.w3.org/1999/xlink" viewBox="0 0 6.01 13.51">
  <defs>
    <style>
      .cls-1 {
        fill: #fff;
      }

      .cls-2 {
        clip-path: url(#clippath);
      }

      .cls-3 {
        fill: none;
      }
    </style>
    <clipPath id="clippath">
      <rect class="cls-3" width="6.01" height="13.51"/>
    </clipPath>
  </defs>
  <g id="Layer_1-2" data-name="Layer 1">
    <g class="cls-2">
      <path class="cls-1" d="M5.94,12.32c-.13,.15-.26,.29-.4,.44-.33,.27-.7,.49-1.1,.62-.59,.13-1.2,.1-1.78-.08-.37-.12-.68-.38-.85-.74C0,8.95,0,4.64,1.77,1.01c.2-.41,.57-.72,.99-.84,.32-.09,.63-.15,.95-.15,.74-.01,1.44,.22,2.04,.65,.07,.05,.12,.15,.12,.24,0,.05-.02,.11-.05,.15l-1.49,2.6c-.07,.13-.24,.18-.37,.11l-.8-.46s-.09-.04-.14-.04c-.16,0-.28,.13-.28,.3v6.24c0,.17,.12,.3,.28,.3,.05,0,.11-.02,.15-.05l.45-.32c.12-.08,.27-.06,.36,.04l1.94,2.13c.05,.06,.07,.13,.07,.2,0,.07-.03,.14-.06,.2h0Z"/>
    </g>
  </g>
</svg>