<svg width="33" height="33" viewBox="0 0 33 33" fill="none" xmlns="http://www.w3.org/2000/svg">
<path d="M20.5 18.5L26 13M13.5 14.5L17.5 18.5M4 21L10.5 14.5" stroke="white" stroke-width="1.5" stroke-linecap="round" stroke-linejoin="round"/>
<path d="M27.5 13C28.3284 13 29 12.3284 29 11.5C29 10.6716 28.3284 10 27.5 10C26.6716 10 26 10.6716 26 11.5C26 12.3284 26.6716 13 27.5 13Z" stroke="#737791" stroke-width="1.5" stroke-linecap="round" stroke-linejoin="round"/>
<path d="M19 21.5C19.8284 21.5 20.5 20.8284 20.5 20C20.5 19.1716 19.8284 18.5 19 18.5C18.1716 18.5 17.5 19.1716 17.5 20C17.5 20.8284 18.1716 21.5 19 21.5Z" stroke="#737791" stroke-width="1.5" stroke-linecap="round" stroke-linejoin="round"/>
<path d="M12 14.5C12.8284 14.5 13.5 13.8284 13.5 13C13.5 12.1716 12.8284 11.5 12 11.5C11.1716 11.5 10.5 12.1716 10.5 13C10.5 13.8284 11.1716 14.5 12 14.5Z" stroke="#737791" stroke-width="1.5" stroke-linecap="round" stroke-linejoin="round"/>
<path d="M2.5 24C3.32843 24 4 23.3284 4 22.5C4 21.6716 3.32843 21 2.5 21C1.67157 21 1 21.6716 1 22.5C1 23.3284 1.67157 24 2.5 24Z" stroke="#737791" stroke-width="1.5" stroke-linecap="round" stroke-linejoin="round"/>
</svg>
