<svg width="32" height="32" viewBox="0 0 32 32" fill="none" xmlns="http://www.w3.org/2000/svg">
<path d="M22.6667 17.8667V21.8667C22.6667 27.2 20.5334 29.3334 15.2001 29.3334H10.1334C4.80008 29.3334 2.66675 27.2 2.66675 21.8667V16.8C2.66675 11.4667 4.80008 9.33337 10.1334 9.33337H14.1334" fill="white"/>
<path d="M22.6667 17.8667V21.8667C22.6667 27.2 20.5334 29.3334 15.2001 29.3334H10.1334C4.80008 29.3334 2.66675 27.2 2.66675 21.8667V16.8C2.66675 11.4667 4.80008 9.33337 10.1334 9.33337H14.1334" stroke="#737791" stroke-width="1.5" stroke-linecap="round" stroke-linejoin="round"/>
<path d="M22.6666 17.8667H18.4C15.2 17.8667 14.1333 16.8 14.1333 13.6V9.33337L22.6666 17.8667Z" stroke="#737791" stroke-width="1.5" stroke-linecap="round" stroke-linejoin="round"/>
<path d="M15.4666 2.66663H20.7999" stroke="#737791" stroke-width="1.5" stroke-linecap="round" stroke-linejoin="round"/>
<path d="M9.33325 6.66663C9.33325 4.45329 11.1199 2.66663 13.3333 2.66663H16.8266" stroke="#737791" stroke-width="1.5" stroke-linecap="round" stroke-linejoin="round"/>
<path d="M29.3333 10.6666V18.92C29.3333 20.9866 27.6533 22.6666 25.5867 22.6666" stroke="#737791" stroke-width="1.5" stroke-linecap="round" stroke-linejoin="round"/>
<path d="M29.3333 10.6666H25.3333C22.3333 10.6666 21.3333 9.66663 21.3333 6.66663V2.66663L29.3333 10.6666Z" stroke="#737791" stroke-width="1.5" stroke-linecap="round" stroke-linejoin="round"/>
</svg>
