<svg width="214" height="127" viewBox="0 0 214 127" fill="none" xmlns="http://www.w3.org/2000/svg">
<g clip-path="url(#clip0_79_427)">
<path d="M159.241 21.8325C158.704 22.6399 158.289 23.5619 157.62 24.2308C139.729 42.2361 121.82 60.2173 103.899 78.1925C94.0045 88.1172 81.2296 88.1413 71.3592 78.2408C53.1189 59.9522 34.8906 41.6456 16.6502 23.345C16.0296 22.7243 15.3848 22.1338 14.4447 21.2359C14.3905 22.4049 14.3182 23.1883 14.3182 23.9777C14.3122 51.6184 14.3122 79.2591 14.3182 106.9C14.3182 112.148 15.903 113.703 21.2118 113.703C65.5744 113.703 109.931 113.703 154.293 113.703C158.493 113.703 159.614 112.721 160.145 108.599C160.717 104.128 163.694 101.483 167.629 101.947C171.479 102.405 173.86 105.845 173.371 110.244C172.233 120.645 165.255 126.978 154.8 126.984C109.985 127.002 65.1767 127.008 20.3622 126.984C8.92504 126.978 1.01908 119.126 1.001 107.701C0.952792 78.1021 0.952792 48.503 1.001 18.9039C1.01908 7.63547 8.72017 0.0971024 20.1874 0.066973C40.8984 0.018766 61.6093 0.0549095 82.3203 0.0549095C106.496 0.0549095 130.672 0.181455 154.848 0.000678756C165.935 -0.0836836 172.781 7.70778 173.341 16.7767C173.637 21.501 173.432 26.2615 173.432 31.0039C173.432 31.4498 173.317 31.8957 173.203 32.3295C172.365 35.5895 169.708 37.566 166.393 37.3973C163.17 37.2346 160.584 34.8845 160.277 31.5341C160.066 29.2202 160.187 26.8701 160.151 24.5381C160.139 23.827 160.084 23.116 160.048 22.4049C159.771 22.2121 159.506 22.0193 159.241 21.8325ZM149.461 13.5408C108.045 13.5408 67.0025 13.5408 25.9602 13.5408C26.2676 14.3905 26.846 14.7701 27.3221 15.2462C45.0261 33.0105 62.7181 50.7808 80.4161 68.5451C85.5502 73.7033 89.6417 73.7153 94.7396 68.5993C112.438 50.835 130.136 33.0647 147.834 15.2944C148.34 14.7882 148.81 14.2398 149.461 13.5408Z" fill="#C1C1C1"/>
<path d="M190.515 66.2432C187.285 63.0495 184.55 60.368 181.85 57.6563C178.693 54.4867 178.494 50.4313 181.32 47.6714C184.074 44.9839 188.099 45.1888 191.154 48.2318C197.656 54.7096 204.158 61.1995 210.63 67.7075C213.998 71.1001 213.974 75.2278 210.57 78.6445C204.303 84.9355 198.024 91.2145 191.733 97.4814C188.515 100.687 184.532 100.904 181.73 98.0719C178.97 95.2819 179.235 91.2627 182.405 88.075C185.086 85.3754 187.786 82.6939 190.955 79.5182C189.491 79.5182 188.696 79.5182 187.9 79.5182C174.878 79.5182 161.862 79.5363 148.84 79.5062C144.399 79.4941 141.561 77.1259 141.332 73.3718C141.073 69.2441 144.044 66.2552 148.527 66.2372C158.536 66.207 168.545 66.2251 178.554 66.2251C182.302 66.2432 186.044 66.2432 190.515 66.2432Z" fill="#C1C1C1"/>
</g>
<defs>
<clipPath id="clip0_79_427">
<rect width="214" height="127" fill="white"/>
</clipPath>
</defs>
</svg>
