<svg width="406" height="293" viewBox="0 0 406 293" fill="none" xmlns="http://www.w3.org/2000/svg">
<rect x="1.13825" y="0.409365" width="404.452" height="291.468" rx="8.66361" fill="white" stroke="#CBDCFF" stroke-width="0.818729"/>
<mask id="mask0_211_1339" style="mask-type:luminance" maskUnits="userSpaceOnUse" x="54" y="16" width="332" height="272">
<rect x="54.8245" y="16.3746" width="330.191" height="271.509" rx="4.11145" fill="white"/>
</mask>
<g mask="url(#mask0_211_1339)">
<path fill-rule="evenodd" clip-rule="evenodd" d="M31.0693 292.664L31.0693 177.049C46.5018 177.049 51.4669 195.753 63.1678 185.894C73.9089 176.843 68.8745 131.892 83.2232 131.892C96.9086 131.892 93.2448 164.695 108.402 164.695C123.711 164.045 122.256 136.802 132.447 136.802C142.638 136.802 142.284 158.87 155.072 155.421C170.181 151.346 164.871 121.599 178.375 121.599C186.11 121.599 193.664 127.941 203.397 121.599C221.002 110.129 217.364 82.3408 229.188 82.3408C241.011 82.3408 239.18 120.019 259.157 119.611C273.859 117.604 272.067 102.545 284.049 115.426C299.364 131.892 312.288 92.1186 322.385 92.1186C333.154 92.1186 327.768 108.137 351.52 104.96C364.976 103.16 358.368 141.712 369.182 145.729C380.658 149.992 392.033 133.809 392.033 142.018C392.033 168.856 392.277 275.213 392.033 292.664H31.0693Z" fill="url(#paint0_linear_211_1339)" stroke="url(#paint1_linear_211_1339)" stroke-width="1.64458"/>
</g>
<path opacity="0.3" d="M206.26 120.364L205.666 263.027" stroke="#DF9DD0" stroke-width="0.82229" stroke-linecap="square"/>
<path opacity="0.231585" fill-rule="evenodd" clip-rule="evenodd" d="M206.382 130.178C213.249 130.178 218.816 124.68 218.816 117.897C218.816 111.115 213.249 105.616 206.382 105.616C199.516 105.616 193.949 111.115 193.949 117.897C193.949 124.68 199.516 130.178 206.382 130.178Z" fill="#D1A8E2"/>
<path fill-rule="evenodd" clip-rule="evenodd" d="M206.23 125.266C210.3 125.266 213.599 121.967 213.599 117.897C213.599 113.828 210.3 110.529 206.23 110.529C202.161 110.529 198.862 113.828 198.862 117.897C198.862 121.967 202.161 125.266 206.23 125.266Z" fill="white"/>
<path fill-rule="evenodd" clip-rule="evenodd" d="M206.23 121.172C208.039 121.172 209.505 119.706 209.505 117.897C209.505 116.088 208.039 114.622 206.23 114.622C204.421 114.622 202.955 116.088 202.955 117.897C202.955 119.706 204.421 121.172 206.23 121.172Z" fill="#B877D1"/>
<g opacity="0.404088">
<path d="M58.3873 262.549H385.015" stroke="#CCCCCC" stroke-width="0.82229" stroke-linecap="square" stroke-dasharray="0.82 4.93" style="mix-blend-mode:multiply"/>
</g>
<g opacity="0.404088">
<path d="M58.3873 229.089L385.015 229.089" stroke="#CCCCCC" stroke-width="0.82229" stroke-linecap="square" stroke-dasharray="0.82 4.93" style="mix-blend-mode:multiply"/>
</g>
<g opacity="0.404088">
<path d="M58.3873 195.628L385.015 195.628" stroke="#CCCCCC" stroke-width="0.82229" stroke-linecap="square" stroke-dasharray="0.82 4.93" style="mix-blend-mode:multiply"/>
</g>
<g opacity="0.404088">
<path d="M58.3873 162.167L385.015 162.167" stroke="#CCCCCC" stroke-width="0.82229" stroke-linecap="square" stroke-dasharray="0.82 4.93" style="mix-blend-mode:multiply"/>
</g>
<g opacity="0.404088">
<path d="M58.3873 126.795L385.015 126.795" stroke="#CCCCCC" stroke-width="0.82229" stroke-linecap="square" stroke-dasharray="0.82 4.93" style="mix-blend-mode:multiply"/>
</g>
<g opacity="0.404088">
<path d="M58.3873 91.4218L385.015 91.4218" stroke="#CCCCCC" stroke-width="0.82229" stroke-linecap="square" stroke-dasharray="0.82 4.93" style="mix-blend-mode:multiply"/>
</g>
<path d="M22.8524 92.7661H23.2965V92.1001C24.4148 92.0261 24.9904 91.2449 24.9904 90.4801C24.9904 89.3372 24.1105 89.0987 23.2965 88.8931V86.8867C23.7981 86.9936 24.0694 87.3637 24.1188 87.7173H24.9164C24.8342 86.8867 24.2339 86.3358 23.2965 86.2536V85.5711H22.8524V86.2536C21.8246 86.3194 21.1503 86.9525 21.1503 87.8406C21.1503 88.9754 22.0301 89.2138 22.8524 89.4276V91.4833C22.2686 91.3929 21.9973 90.99 21.9561 90.5624H21.1585C21.175 91.434 21.8657 92.0096 22.8524 92.1001V92.7661ZM24.2421 90.5213C24.2421 91.0146 23.905 91.4258 23.2965 91.4916V89.551C23.8227 89.7072 24.2421 89.9374 24.2421 90.5213ZM21.915 87.7995C21.915 87.2157 22.3015 86.9196 22.8524 86.8703V88.7698C22.3262 88.6053 21.915 88.3833 21.915 87.7995ZM26.1915 91.9849H30.1467V91.36H27.318C28.3788 90.4966 29.974 89.2385 29.974 87.7584C29.974 86.6565 29.2504 85.9987 28.1321 85.9987C27.0631 85.9987 26.2655 86.6565 26.2162 87.9228H26.9398C26.9727 87.1745 27.3674 86.6401 28.1403 86.6401C28.9462 86.6401 29.234 87.1334 29.234 87.7913C29.234 89.0082 27.7539 90.1923 26.1915 91.4504V91.9849ZM31.2255 86.0973V89.4523H31.9327C32.1301 88.9836 32.5659 88.6711 33.1661 88.6711C34.0295 88.6711 34.4654 89.1645 34.4654 90.0114C34.4654 90.8255 34.0624 91.434 33.1579 91.434C32.459 91.434 31.9738 91.064 31.834 90.439H31.1022C31.2502 91.4011 31.9656 92.0672 33.1497 92.0672C34.5394 92.0672 35.1807 91.1462 35.1807 89.995C35.1807 89.074 34.7203 88.0297 33.273 88.0297C32.6892 88.0297 32.1629 88.2929 31.9163 88.63V86.7552H34.8025V86.0973H31.2255ZM36.1751 89.0165C36.1751 90.7433 36.6027 92.0507 38.2473 92.0507C39.8837 92.0507 40.3113 90.7433 40.3113 89.0165C40.3113 87.3143 39.8837 86.0151 38.2473 86.0151C36.6027 86.0151 36.1751 87.3143 36.1751 89.0165ZM39.5712 89.0165C39.5712 90.2992 39.415 91.3682 38.2473 91.3682C37.0714 91.3682 36.9152 90.2992 36.9152 89.0165C36.9152 87.783 37.0714 86.6976 38.2473 86.6976C39.415 86.6976 39.5712 87.783 39.5712 89.0165ZM41.4619 92.0507H42.2102V90.0608L43.9781 92.0507H44.9977L42.868 89.7894L44.9895 87.5446H43.9452L42.2102 89.5427V85.9658H41.4619V92.0507ZM22.8524 121.766H23.2965V121.1C24.4148 121.026 24.9904 120.245 24.9904 119.48C24.9904 118.337 24.1105 118.099 23.2965 117.893V115.887C23.7981 115.994 24.0694 116.364 24.1188 116.717H24.9164C24.8342 115.887 24.2339 115.336 23.2965 115.254V114.571H22.8524V115.254C21.8246 115.319 21.1503 115.953 21.1503 116.841C21.1503 117.975 22.0301 118.214 22.8524 118.428V120.483C22.2686 120.393 21.9973 119.99 21.9561 119.562H21.1585C21.175 120.434 21.8657 121.01 22.8524 121.1V121.766ZM24.2421 119.521C24.2421 120.015 23.905 120.426 23.2965 120.492V118.551C23.8227 118.707 24.2421 118.937 24.2421 119.521ZM21.915 116.799C21.915 116.216 22.3015 115.92 22.8524 115.87V117.77C22.3262 117.605 21.915 117.383 21.915 116.799ZM26.1915 120.985H30.1467V120.36H27.318C28.3788 119.497 29.974 118.238 29.974 116.758C29.974 115.656 29.2504 114.999 28.1321 114.999C27.0631 114.999 26.2655 115.656 26.2162 116.923H26.9398C26.9727 116.175 27.3674 115.64 28.1403 115.64C28.9462 115.64 29.234 116.133 29.234 116.791C29.234 118.008 27.7539 119.192 26.1915 120.45V120.985ZM31.0117 118.016C31.0117 119.743 31.4393 121.051 33.0839 121.051C34.7203 121.051 35.1479 119.743 35.1479 118.016C35.1479 116.314 34.7203 115.015 33.0839 115.015C31.4393 115.015 31.0117 116.314 31.0117 118.016ZM34.4078 118.016C34.4078 119.299 34.2516 120.368 33.0839 120.368C31.908 120.368 31.7518 119.299 31.7518 118.016C31.7518 116.783 31.908 115.698 33.0839 115.698C34.2516 115.698 34.4078 116.783 34.4078 118.016ZM36.1751 118.016C36.1751 119.743 36.6027 121.051 38.2473 121.051C39.8837 121.051 40.3113 119.743 40.3113 118.016C40.3113 116.314 39.8837 115.015 38.2473 115.015C36.6027 115.015 36.1751 116.314 36.1751 118.016ZM39.5712 118.016C39.5712 119.299 39.415 120.368 38.2473 120.368C37.0714 120.368 36.9152 119.299 36.9152 118.016C36.9152 116.783 37.0714 115.698 38.2473 115.698C39.415 115.698 39.5712 116.783 39.5712 118.016ZM41.4619 121.051H42.2102V119.061L43.9781 121.051H44.9977L42.868 118.789L44.9895 116.545H43.9452L42.2102 118.543V114.966H41.4619V121.051ZM22.8524 150.766H23.2965L23.2965 150.1C24.4148 150.026 24.9904 149.245 24.9904 148.48C24.9904 147.337 24.1105 147.099 23.2965 146.893V144.887C23.7981 144.994 24.0694 145.364 24.1188 145.717H24.9164C24.8342 144.887 24.2339 144.336 23.2965 144.254V143.571H22.8524V144.254C21.8246 144.319 21.1503 144.953 21.1503 145.841C21.1503 146.975 22.0301 147.214 22.8524 147.428V149.483C22.2686 149.393 21.9973 148.99 21.9561 148.562H21.1585C21.175 149.434 21.8657 150.01 22.8524 150.1L22.8524 150.766ZM24.2421 148.521C24.2421 149.015 23.905 149.426 23.2965 149.492V147.551C23.8227 147.707 24.2421 147.937 24.2421 148.521ZM21.915 145.799C21.915 145.216 22.3015 144.92 22.8524 144.87V146.77C22.3262 146.605 21.915 146.383 21.915 145.799ZM26.874 150.051H27.6305L27.6305 144.106H26.0846V144.788H26.874L26.874 150.051ZM29.1297 144.097V147.452H29.8368C30.0342 146.984 30.47 146.671 31.0703 146.671C31.9337 146.671 32.3695 147.164 32.3695 148.011C32.3695 148.826 31.9666 149.434 31.062 149.434C30.3631 149.434 29.8779 149.064 29.7381 148.439H29.0063C29.1543 149.401 29.8697 150.067 31.0538 150.067C32.4435 150.067 33.0849 149.146 33.0849 147.995C33.0849 147.074 32.6244 146.03 31.1772 146.03C30.5933 146.03 30.0671 146.293 29.8204 146.63V144.755H32.7066V144.097H29.1297ZM34.0793 147.016C34.0793 148.743 34.5069 150.051 36.1514 150.051C37.7878 150.051 38.2154 148.743 38.2154 147.016C38.2154 145.314 37.7878 144.015 36.1514 144.015C34.5069 144.015 34.0793 145.314 34.0793 147.016ZM37.4753 147.016C37.4753 148.299 37.3191 149.368 36.1514 149.368C34.9756 149.368 34.8193 148.299 34.8193 147.016C34.8193 145.783 34.9756 144.698 36.1514 144.698C37.3191 144.698 37.4753 145.783 37.4753 147.016ZM39.366 150.051H40.1143V148.061L41.8822 150.051H42.9019L40.7721 147.789L42.8936 145.545H41.8493L40.1143 147.543V143.966H39.366V150.051ZM22.8524 178.766H23.2965V178.1C24.4148 178.026 24.9904 177.245 24.9904 176.48C24.9904 175.337 24.1105 175.099 23.2965 174.893V172.887C23.7981 172.994 24.0694 173.364 24.1188 173.717H24.9164C24.8342 172.887 24.2339 172.336 23.2965 172.254V171.571H22.8524V172.254C21.8246 172.319 21.1503 172.953 21.1503 173.841C21.1503 174.975 22.0301 175.214 22.8524 175.428V177.483C22.2686 177.393 21.9973 176.99 21.9561 176.562H21.1585C21.175 177.434 21.8657 178.01 22.8524 178.1V178.766ZM24.2421 176.521C24.2421 177.015 23.905 177.426 23.2965 177.492V175.551C23.8227 175.707 24.2421 175.937 24.2421 176.521ZM21.915 173.799C21.915 173.216 22.3015 172.92 22.8524 172.87V174.77C22.3262 174.605 21.915 174.383 21.915 173.799ZM26.874 178.051H27.6305V172.106H26.0846V172.788H26.874V178.051ZM28.9159 175.016C28.9159 176.743 29.3435 178.051 30.988 178.051C32.6244 178.051 33.052 176.743 33.052 175.016C33.052 173.314 32.6244 172.015 30.988 172.015C29.3435 172.015 28.9159 173.314 28.9159 175.016ZM32.3119 175.016C32.3119 176.299 32.1557 177.368 30.988 177.368C29.8122 177.368 29.6559 176.299 29.6559 175.016C29.6559 173.783 29.8122 172.698 30.988 172.698C32.1557 172.698 32.3119 173.783 32.3119 175.016ZM34.0793 175.016C34.0793 176.743 34.5069 178.051 36.1514 178.051C37.7878 178.051 38.2154 176.743 38.2154 175.016C38.2154 173.314 37.7878 172.015 36.1514 172.015C34.5069 172.015 34.0793 173.314 34.0793 175.016ZM37.4753 175.016C37.4753 176.299 37.3191 177.368 36.1514 177.368C34.9756 177.368 34.8193 176.299 34.8193 175.016C34.8193 173.783 34.9756 172.698 36.1514 172.698C37.3191 172.698 37.4753 173.783 37.4753 175.016ZM39.366 178.051H40.1143V176.061L41.8822 178.051H42.9019L40.7721 175.789L42.8936 173.545H41.8493L40.1143 175.543V171.966H39.366V178.051ZM22.8524 207.766H23.2965V207.1C24.4148 207.026 24.9904 206.245 24.9904 205.48C24.9904 204.337 24.1105 204.099 23.2965 203.893V201.887C23.7981 201.994 24.0694 202.364 24.1188 202.717H24.9164C24.8342 201.887 24.2339 201.336 23.2965 201.254V200.571H22.8524V201.254C21.8246 201.319 21.1503 201.953 21.1503 202.841C21.1503 203.975 22.0301 204.214 22.8524 204.428V206.483C22.2686 206.393 21.9973 205.99 21.9561 205.562H21.1585C21.175 206.434 21.8657 207.01 22.8524 207.1V207.766ZM24.2421 205.521C24.2421 206.015 23.905 206.426 23.2965 206.492V204.551C23.8227 204.707 24.2421 204.937 24.2421 205.521ZM21.915 202.799C21.915 202.216 22.3015 201.92 22.8524 201.87V203.77C22.3262 203.605 21.915 203.383 21.915 202.799ZM26.4958 201.097V204.452H27.2029C27.4003 203.984 27.8361 203.671 28.4364 203.671C29.2998 203.671 29.7356 204.164 29.7356 205.011C29.7356 205.826 29.3327 206.434 28.4281 206.434C27.7292 206.434 27.244 206.064 27.1043 205.439H26.3724C26.5204 206.401 27.2358 207.067 28.4199 207.067C29.8096 207.067 30.451 206.146 30.451 204.995C30.451 204.074 29.9905 203.03 28.5433 203.03C27.9594 203.03 27.4332 203.293 27.1865 203.63V201.755H30.0727V201.097H26.4958ZM31.4454 204.016C31.4454 205.743 31.873 207.051 33.5175 207.051C35.1539 207.051 35.5815 205.743 35.5815 204.016C35.5815 202.314 35.1539 201.015 33.5175 201.015C31.873 201.015 31.4454 202.314 31.4454 204.016ZM34.8414 204.016C34.8414 205.299 34.6852 206.368 33.5175 206.368C32.3417 206.368 32.1854 205.299 32.1854 204.016C32.1854 202.783 32.3417 201.698 33.5175 201.698C34.6852 201.698 34.8414 202.783 34.8414 204.016ZM36.7321 207.051H37.4804V205.061L39.2483 207.051H40.268L38.1382 204.789L40.2597 202.545H39.2154L37.4804 204.543V200.966H36.7321L36.7321 207.051ZM22.8524 236.766H23.2965V236.1C24.4148 236.026 24.9904 235.245 24.9904 234.48C24.9904 233.337 24.1105 233.099 23.2965 232.893V230.887C23.7981 230.994 24.0694 231.364 24.1188 231.717H24.9164C24.8342 230.887 24.2339 230.336 23.2965 230.254V229.571H22.8524V230.254C21.8246 230.319 21.1503 230.953 21.1503 231.841C21.1503 232.975 22.0301 233.214 22.8524 233.428V235.483C22.2686 235.393 21.9973 234.99 21.9561 234.562H21.1585C21.175 235.434 21.8657 236.01 22.8524 236.1V236.766ZM24.2421 234.521C24.2421 235.015 23.905 235.426 23.2965 235.492V233.551C23.8227 233.707 24.2421 233.937 24.2421 234.521ZM21.915 231.799C21.915 231.216 22.3015 230.92 22.8524 230.87V232.77C22.3262 232.605 21.915 232.383 21.915 231.799ZM26.282 233.016C26.282 234.743 26.7096 236.051 28.3541 236.051C29.9905 236.051 30.4181 234.743 30.4181 233.016C30.4181 231.314 29.9905 230.015 28.3541 230.015C26.7096 230.015 26.282 231.314 26.282 233.016ZM29.678 233.016C29.678 234.299 29.5218 235.368 28.3541 235.368C27.1783 235.368 27.022 234.299 27.022 233.016C27.022 231.783 27.1783 230.698 28.3541 230.698C29.5218 230.698 29.678 231.783 29.678 233.016Z" fill="#414141"/>
<path d="M63.265 274.137C63.265 274.614 63.0265 275.025 62.4345 275.025C61.8424 275.025 61.5957 274.606 61.5875 274.079H60.8392C60.8392 275.083 61.4806 275.691 62.4345 275.691C63.3801 275.691 64.0215 275.091 64.0215 274.137V269.902H63.265V274.137ZM65.216 273.364C65.216 274.762 66.1452 275.707 67.3458 275.707C68.1763 275.707 68.7601 275.28 69.0315 274.795V275.633H69.788V271.127H69.0315V271.95C68.7683 271.481 68.1927 271.053 67.354 271.053C66.1452 271.053 65.216 271.958 65.216 273.364ZM69.0315 273.372C69.0315 274.433 68.3243 275.05 67.502 275.05C66.6797 275.05 65.9808 274.425 65.9808 273.364C65.9808 272.303 66.6797 271.703 67.502 271.703C68.3243 271.703 69.0315 272.328 69.0315 273.372ZM74.3499 275.633H75.0899V272.977C75.0899 271.686 74.2923 271.045 73.248 271.045C72.6395 271.045 72.0968 271.3 71.8008 271.769V271.127H71.0525V275.633H71.8008V273.142C71.8008 272.172 72.3271 271.695 73.0918 271.695C73.8483 271.695 74.3499 272.163 74.3499 273.084V275.633Z" fill="#414141"/>
<path d="M110.259 275.633H111.007V273.051H113.03V272.443H111.007V270.511H113.499V269.902H110.259V275.633ZM116.318 271.686C117.091 271.686 117.749 272.172 117.741 273.051H114.896C114.978 272.172 115.587 271.686 116.318 271.686ZM118.424 274.244H117.618C117.453 274.729 117.026 275.074 116.351 275.074C115.587 275.074 114.945 274.573 114.888 273.66H118.489C118.506 273.504 118.514 273.372 118.514 273.208C118.514 271.974 117.659 271.053 116.351 271.053C115.036 271.053 114.123 271.95 114.123 273.372C114.123 274.803 115.069 275.707 116.351 275.707C117.47 275.707 118.193 275.066 118.424 274.244ZM120.25 271.966V269.548H119.502V275.633H120.25V274.803C120.53 275.296 121.113 275.707 121.936 275.707C123.144 275.707 124.074 274.762 124.074 273.364C124.074 271.958 123.153 271.053 121.936 271.053C121.138 271.053 120.538 271.464 120.25 271.966ZM123.309 273.364C123.309 274.425 122.61 275.05 121.779 275.05C120.965 275.05 120.25 274.433 120.25 273.372C120.25 272.328 120.965 271.703 121.779 271.703C122.61 271.703 123.309 272.303 123.309 273.364Z" fill="#414141"/>
<path d="M161.02 276.633H161.768V272.382L163.668 276.633H164.194L166.085 272.39V276.633H166.834V270.943H166.036L163.931 275.647L161.826 270.943H161.02V276.633ZM167.823 274.364C167.823 275.762 168.752 276.707 169.953 276.707C170.783 276.707 171.367 276.28 171.639 275.795V276.633H172.395V272.127H171.639V272.95C171.375 272.481 170.8 272.053 169.961 272.053C168.752 272.053 167.823 272.958 167.823 274.364ZM171.639 274.372C171.639 275.433 170.931 276.05 170.109 276.05C169.287 276.05 168.588 275.425 168.588 274.364C168.588 273.303 169.287 272.703 170.109 272.703C170.931 272.703 171.639 273.328 171.639 274.372ZM174.408 274.183C174.408 273.139 174.951 272.818 175.666 272.818H175.863V272.045C175.148 272.045 174.663 272.358 174.408 272.859V272.127H173.66V276.633H174.408V274.183Z" fill="#414141"/>
<path d="M221.238 276.633H222.027L219.964 270.937H219.101L217.029 276.633H217.819L218.279 275.359H220.778L221.238 276.633ZM220.564 274.751H218.493L219.528 271.857L220.564 274.751ZM223.678 272.959V272.129H222.93V278.771H223.678V275.803C223.958 276.264 224.541 276.707 225.363 276.707C226.572 276.707 227.501 275.762 227.501 274.365C227.501 272.959 226.572 272.055 225.363 272.055C224.541 272.055 223.95 272.482 223.678 272.959ZM226.736 274.365C226.736 275.425 226.038 276.05 225.207 276.05C224.393 276.05 223.678 275.433 223.678 274.373C223.678 273.329 224.393 272.704 225.207 272.704C226.038 272.704 226.736 273.304 226.736 274.365ZM229.233 274.184C229.233 273.14 229.776 272.819 230.491 272.819H230.688V272.046C229.973 272.046 229.488 272.359 229.233 272.86V272.129H228.485V276.633H229.233V274.184Z" fill="#414141"/>
<path d="M262.477 275.633H263.628V271.9L265.174 275.633H266.046L267.583 271.9V275.633H268.734V269.894H267.435L265.61 274.162L263.784 269.894H262.477V275.633ZM269.577 273.339C269.577 274.762 270.498 275.707 271.649 275.707C272.372 275.707 272.89 275.362 273.162 274.967V275.633H274.321V271.078H273.162V271.728C272.89 271.349 272.389 271.004 271.657 271.004C270.498 271.004 269.577 271.917 269.577 273.339ZM273.162 273.356C273.162 274.219 272.586 274.696 271.953 274.696C271.336 274.696 270.752 274.203 270.752 273.339C270.752 272.476 271.336 272.015 271.953 272.015C272.586 272.015 273.162 272.492 273.162 273.356ZM277.386 274.26L276.21 271.078H274.919L276.745 275.518L275.758 277.788H276.983L279.804 271.078H278.578L277.386 274.26Z" fill="#414141"/>
<path d="M317.89 274.137C317.89 274.614 317.651 275.025 317.059 275.025C316.467 275.025 316.221 274.606 316.212 274.079H315.464C315.464 275.083 316.105 275.691 317.059 275.691C318.005 275.691 318.646 275.091 318.646 274.137V269.902H317.89V274.137ZM324.117 271.127H323.369V273.602C323.369 274.573 322.851 275.05 322.078 275.05C321.321 275.05 320.819 274.581 320.819 273.668V271.127H320.079V273.767C320.079 275.058 320.893 275.699 321.93 275.699C322.53 275.699 323.081 275.436 323.369 274.967V275.633H324.117V271.127ZM328.678 275.633H329.418V272.977C329.418 271.686 328.62 271.045 327.576 271.045C326.967 271.045 326.425 271.3 326.129 271.769V271.127H325.38V275.633H326.129V273.142C326.129 272.172 326.655 271.695 327.42 271.695C328.176 271.695 328.678 272.163 328.678 273.084V275.633Z" fill="#414141"/>
<path d="M368.651 274.137C368.651 274.614 368.412 275.025 367.82 275.025C367.228 275.025 366.982 274.606 366.973 274.079H366.225C366.225 275.083 366.867 275.691 367.82 275.691C368.766 275.691 369.407 275.091 369.407 274.137V269.902H368.651V274.137ZM374.878 271.127H374.13V273.602C374.13 274.573 373.612 275.05 372.839 275.05C372.082 275.05 371.581 274.581 371.581 273.668V271.127H370.84V273.767C370.84 275.058 371.655 275.699 372.691 275.699C373.291 275.699 373.842 275.436 374.13 274.967V275.633H374.878V271.127ZM376.141 275.633H376.89V269.548H376.141V275.633Z" fill="#414141"/>
<g clip-path="url(#clip0_211_1339)">
<g filter="url(#filter0_d_211_1339)">
<path d="M166.47 85.8962C166.47 84.9879 167.206 84.2516 168.115 84.2516H240.841C241.749 84.2516 242.485 84.9879 242.485 85.8962V103.234C242.485 104.142 241.749 104.879 240.841 104.879H214.184C213.831 104.879 213.488 104.992 213.204 105.202L207.559 109.389C207.012 109.796 206.27 109.822 205.695 109.455L198.924 105.137C198.66 104.968 198.353 104.879 198.04 104.879H168.115C167.206 104.879 166.47 104.142 166.47 103.234V85.8962Z" fill="white"/>
</g>
<path d="M177.376 99.72H177.908V99.0487C179.014 98.9504 179.62 98.1808 179.62 97.3866C179.62 96.2322 178.727 96.0112 177.908 95.8147V94.0462C178.301 94.1445 178.531 94.4474 178.563 94.7749H179.562C179.489 93.8497 178.85 93.3339 177.908 93.2521V92.5889H177.376V93.2602C176.361 93.3503 175.657 93.9807 175.657 94.8977C175.657 96.0521 176.557 96.2814 177.376 96.486V98.2872C176.918 98.2054 176.688 97.9024 176.656 97.4931H175.657C175.657 98.4182 176.377 98.9668 177.376 99.0568V99.72ZM178.678 97.4358C178.678 97.8615 178.4 98.2054 177.908 98.2872V96.6252C178.351 96.7644 178.678 96.9691 178.678 97.4358ZM176.607 94.8486C176.607 94.3492 176.926 94.079 177.376 94.0217V95.6755C176.934 95.5363 176.607 95.3234 176.607 94.8486ZM183.035 98.9258H187.014V98.1481H184.419C185.376 97.272 186.85 96.1667 186.85 94.7176C186.85 93.645 186.162 92.9164 184.951 92.9164C183.895 92.9164 183.059 93.5468 183.027 94.8404H183.927C183.952 94.169 184.304 93.7105 184.959 93.7105C185.655 93.7105 185.925 94.1363 185.925 94.7585C185.925 95.9293 184.443 97.01 183.035 98.2463V98.9258ZM187.384 100.146H187.989L188.98 97.8861H187.965L187.384 100.146ZM189.599 98.9258H193.578V98.1481H190.983C191.941 97.272 193.414 96.1667 193.414 94.7176C193.414 93.645 192.727 92.9164 191.515 92.9164C190.459 92.9164 189.624 93.5468 189.591 94.8404H190.492C190.516 94.169 190.868 93.7105 191.523 93.7105C192.219 93.7105 192.489 94.1363 192.489 94.7585C192.489 95.9293 191.007 97.01 189.599 98.2463V98.9258ZM194.398 95.9457C194.398 97.6814 194.857 98.9913 196.527 98.9913C198.197 98.9913 198.656 97.6814 198.656 95.9457C198.656 94.2427 198.197 92.9327 196.527 92.9327C194.857 92.9327 194.398 94.2427 194.398 95.9457ZM197.739 95.9457C197.739 97.1165 197.616 98.1399 196.527 98.1399C195.438 98.1399 195.315 97.1165 195.315 95.9457C195.315 94.8322 195.438 93.7842 196.527 93.7842C197.616 93.7842 197.739 94.8322 197.739 95.9457ZM199.193 100.146H199.799L200.789 97.8861H199.774L199.193 100.146ZM201.482 95.9457C201.482 97.6814 201.941 98.9913 203.611 98.9913C205.281 98.9913 205.739 97.6814 205.739 95.9457C205.739 94.2427 205.281 92.9327 203.611 92.9327C201.941 92.9327 201.482 94.2427 201.482 95.9457ZM204.822 95.9457C204.822 97.1165 204.7 98.1399 203.611 98.1399C202.522 98.1399 202.399 97.1165 202.399 95.9457C202.399 94.8322 202.522 93.7842 203.611 93.7842C204.7 93.7842 204.822 94.8322 204.822 95.9457ZM206.727 95.9457C206.727 97.6814 207.186 98.9913 208.856 98.9913C210.526 98.9913 210.984 97.6814 210.984 95.9457C210.984 94.2427 210.526 92.9327 208.856 92.9327C207.186 92.9327 206.727 94.2427 206.727 95.9457ZM210.067 95.9457C210.067 97.1165 209.945 98.1399 208.856 98.1399C207.767 98.1399 207.644 97.1165 207.644 95.9457C207.644 94.8322 207.767 93.7842 208.856 93.7842C209.945 93.7842 210.067 94.8322 210.067 95.9457ZM211.972 95.9457C211.972 97.6814 212.431 98.9913 214.101 98.9913C215.771 98.9913 216.229 97.6814 216.229 95.9457C216.229 94.2427 215.771 92.9327 214.101 92.9327C212.431 92.9327 211.972 94.2427 211.972 95.9457ZM215.312 95.9457C215.312 97.1165 215.19 98.1399 214.101 98.1399C213.012 98.1399 212.889 97.1165 212.889 95.9457C212.889 94.8322 213.012 93.7842 214.101 93.7842C215.19 93.7842 215.312 94.8322 215.312 95.9457ZM218.306 98.4674C218.306 98.1317 218.044 97.8697 217.716 97.8697C217.381 97.8697 217.119 98.1317 217.119 98.4674C217.119 98.803 217.381 99.065 217.716 99.065C218.044 99.065 218.306 98.803 218.306 98.4674ZM219.192 95.9457C219.192 97.6814 219.65 98.9913 221.321 98.9913C222.991 98.9913 223.449 97.6814 223.449 95.9457C223.449 94.2427 222.991 92.9327 221.321 92.9327C219.65 92.9327 219.192 94.2427 219.192 95.9457ZM222.532 95.9457C222.532 97.1165 222.409 98.1399 221.321 98.1399C220.232 98.1399 220.109 97.1165 220.109 95.9457C220.109 94.8322 220.232 93.7842 221.321 93.7842C222.409 93.7842 222.532 94.8322 222.532 95.9457ZM224.437 95.9457C224.437 97.6814 224.895 98.9913 226.566 98.9913C228.236 98.9913 228.694 97.6814 228.694 95.9457C228.694 94.2427 228.236 92.9327 226.566 92.9327C224.895 92.9327 224.437 94.2427 224.437 95.9457ZM227.777 95.9457C227.777 97.1165 227.654 98.1399 226.566 98.1399C225.477 98.1399 225.354 97.1165 225.354 95.9457C225.354 94.8322 225.477 93.7842 226.566 93.7842C227.654 93.7842 227.777 94.8322 227.777 95.9457Z" fill="#414141"/>
</g>
<path d="M308.015 38.2454H308.866V37.1712C310.635 37.014 311.604 35.7826 311.604 34.512C311.604 32.6649 310.176 32.3112 308.866 31.9968V29.1673C309.495 29.3245 309.862 29.8092 309.914 30.3332H311.512C311.394 28.8529 310.373 28.0276 308.866 27.8966V26.8356H308.015V27.9097C306.39 28.0538 305.264 29.0625 305.264 30.5297C305.264 32.3767 306.705 32.7435 308.015 33.071V35.9529C307.281 35.8219 306.914 35.3373 306.862 34.6823H305.264C305.264 36.1625 306.416 37.0402 308.015 37.1843V38.2454ZM310.097 34.5906C310.097 35.2718 309.652 35.8219 308.866 35.9529V33.2937C309.573 33.5164 310.097 33.8439 310.097 34.5906ZM306.783 30.4511C306.783 29.652 307.294 29.2197 308.015 29.128V31.7741C307.307 31.5515 306.783 31.2109 306.783 30.4511ZM317.068 36.9747H323.435V35.7302H319.282C320.815 34.3286 323.173 32.5601 323.173 30.2415C323.173 28.5254 322.073 27.3596 320.134 27.3596C318.444 27.3596 317.108 28.3682 317.055 30.438H318.496C318.536 29.3638 319.099 28.6302 320.147 28.6302C321.26 28.6302 321.693 29.3114 321.693 30.307C321.693 32.1802 319.322 33.9094 317.068 35.8874V36.9747ZM324.026 38.9266H324.996L326.581 35.3111H324.956L324.026 38.9266ZM327.571 36.9747H333.938V35.7302H329.785C331.318 34.3286 333.676 32.5601 333.676 30.2415C333.676 28.5254 332.575 27.3596 330.637 27.3596C328.947 27.3596 327.611 28.3682 327.558 30.438H328.999C329.038 29.3638 329.602 28.6302 330.65 28.6302C331.763 28.6302 332.195 29.3114 332.195 30.307C332.195 32.1802 329.824 33.9094 327.571 35.8874V36.9747ZM335.25 32.2064C335.25 34.9836 335.983 37.0795 338.656 37.0795C341.328 37.0795 342.061 34.9836 342.061 32.2064C342.061 29.4817 341.328 27.3858 338.656 27.3858C335.983 27.3858 335.25 29.4817 335.25 32.2064ZM340.594 32.2064C340.594 34.0797 340.398 35.7171 338.656 35.7171C336.913 35.7171 336.717 34.0797 336.717 32.2064C336.717 30.4249 336.913 28.7481 338.656 28.7481C340.398 28.7481 340.594 30.4249 340.594 32.2064ZM342.921 38.9266H343.89L345.476 35.3111H343.851L342.921 38.9266ZM346.584 32.2064C346.584 34.9836 347.317 37.0795 349.99 37.0795C352.662 37.0795 353.396 34.9836 353.396 32.2064C353.396 29.4817 352.662 27.3858 349.99 27.3858C347.317 27.3858 346.584 29.4817 346.584 32.2064ZM351.929 32.2064C351.929 34.0797 351.732 35.7171 349.99 35.7171C348.248 35.7171 348.051 34.0797 348.051 32.2064C348.051 30.4249 348.248 28.7481 349.99 28.7481C351.732 28.7481 351.929 30.4249 351.929 32.2064ZM354.976 32.2064C354.976 34.9836 355.709 37.0795 358.382 37.0795C361.054 37.0795 361.788 34.9836 361.788 32.2064C361.788 29.4817 361.054 27.3858 358.382 27.3858C355.709 27.3858 354.976 29.4817 354.976 32.2064ZM360.321 32.2064C360.321 34.0797 360.124 35.7171 358.382 35.7171C356.64 35.7171 356.443 34.0797 356.443 32.2064C356.443 30.4249 356.64 28.7481 358.382 28.7481C360.124 28.7481 360.321 30.4249 360.321 32.2064ZM363.368 32.2064C363.368 34.9836 364.101 37.0795 366.774 37.0795C369.446 37.0795 370.18 34.9836 370.18 32.2064C370.18 29.4817 369.446 27.3858 366.774 27.3858C364.101 27.3858 363.368 29.4817 363.368 32.2064ZM368.713 32.2064C368.713 34.0797 368.516 35.7171 366.774 35.7171C365.032 35.7171 364.835 34.0797 364.835 32.2064C364.835 30.4249 365.032 28.7481 366.774 28.7481C368.516 28.7481 368.713 30.4249 368.713 32.2064ZM373.502 36.2411C373.502 35.704 373.083 35.2849 372.559 35.2849C372.022 35.2849 371.603 35.704 371.603 36.2411C371.603 36.7782 372.022 37.1974 372.559 37.1974C373.083 37.1974 373.502 36.7782 373.502 36.2411ZM374.92 32.2064C374.92 34.9836 375.653 37.0795 378.326 37.0795C380.998 37.0795 381.731 34.9836 381.731 32.2064C381.731 29.4817 380.998 27.3858 378.326 27.3858C375.653 27.3858 374.92 29.4817 374.92 32.2064ZM380.264 32.2064C380.264 34.0797 380.068 35.7171 378.326 35.7171C376.583 35.7171 376.387 34.0797 376.387 32.2064C376.387 30.4249 376.583 28.7481 378.326 28.7481C380.068 28.7481 380.264 30.4249 380.264 32.2064ZM383.312 32.2064C383.312 34.9836 384.045 37.0795 386.717 37.0795C389.39 37.0795 390.123 34.9836 390.123 32.2064C390.123 29.4817 389.39 27.3858 386.717 27.3858C384.045 27.3858 383.312 29.4817 383.312 32.2064ZM388.656 32.2064C388.656 34.0797 388.46 35.7171 386.717 35.7171C384.975 35.7171 384.779 34.0797 384.779 32.2064C384.779 30.4249 384.975 28.7481 386.717 28.7481C388.46 28.7481 388.656 30.4249 388.656 32.2064Z" fill="#414141"/>
<path d="M28.1735 34.4238C28.1735 30.2646 22.1477 31.8693 22.1477 29.2985C22.1477 28.2014 22.9828 27.6774 24.0635 27.7102C25.2425 27.7429 25.9138 28.447 25.9793 29.2167H28.0425C27.8788 27.2681 26.3396 26.1219 24.1617 26.1219C21.8366 26.1219 20.2482 27.3663 20.2482 29.364C20.2482 33.5559 26.2904 31.7711 26.2904 34.522C26.2904 35.4881 25.5536 36.1922 24.2436 36.1922C22.95 36.1922 22.295 35.439 22.2132 34.5056H20.2155C20.2155 36.5197 21.9676 37.7642 24.2436 37.7642C26.7817 37.7642 28.1735 36.1267 28.1735 34.4238ZM29.7539 33.0974C29.7539 35.8811 31.637 37.7969 33.9786 37.7969C35.485 37.7969 36.5658 37.0765 37.1389 36.3069V37.6496H39.0219V28.6272H37.1389V29.9371C36.5821 29.2003 35.5342 28.4798 34.0113 28.4798C31.637 28.4798 29.7539 30.3138 29.7539 33.0974ZM37.1389 33.1302C37.1389 35.0788 35.8125 36.1759 34.4043 36.1759C33.0125 36.1759 31.6698 35.046 31.6698 33.0974C31.6698 31.1489 33.0125 30.1009 34.4043 30.1009C35.8125 30.1009 37.1389 31.198 37.1389 33.1302ZM41.4738 37.6496H43.3405V25.5324H41.4738V37.6496ZM49.5902 30.0518C50.982 30.0518 52.0791 30.936 52.1119 32.3278H47.1176C47.3141 30.9032 48.3294 30.0518 49.5902 30.0518ZM53.8149 34.9641H51.8008C51.4569 35.6682 50.8183 36.225 49.6721 36.225C48.2966 36.225 47.2323 35.3244 47.1013 33.8343H53.995C54.0441 33.5232 54.0605 33.2284 54.0605 32.9173C54.0605 30.2646 52.2429 28.4798 49.6721 28.4798C47.003 28.4798 45.1691 30.2974 45.1691 33.1302C45.1691 35.963 47.0849 37.7969 49.6721 37.7969C51.8827 37.7969 53.3072 36.5361 53.8149 34.9641ZM62.6275 35.1279C62.5292 31.8693 57.4367 32.8846 57.4367 31.067C57.4367 30.4611 57.9607 30.0518 58.9595 30.0518C59.9748 30.0518 60.5806 30.5921 60.6461 31.3781H62.5128C62.4146 29.5769 61.0719 28.4798 59.025 28.4798C56.8963 28.4798 55.5536 29.6424 55.5536 31.0834C55.5536 34.391 60.7935 33.3758 60.7935 35.1443C60.7935 35.7665 60.2204 36.225 59.1397 36.225C58.1081 36.225 57.404 35.6191 57.3385 34.8823H55.4063C55.4881 36.5197 57.011 37.7969 59.1724 37.7969C61.3011 37.7969 62.6275 36.6507 62.6275 35.1279ZM74.9402 29.6751C74.9402 30.805 74.2853 31.6073 72.8279 31.6073H70.7647V27.7921H72.8279C74.2853 27.7921 74.9402 28.5289 74.9402 29.6751ZM68.898 26.2692V37.6496H70.7647V33.0974H72.1893L74.8093 37.6496H77.0362L74.2198 32.9337C76.1356 32.4588 76.8561 31.0179 76.8561 29.6751C76.8561 27.8248 75.5297 26.2692 72.8279 26.2692L68.898 26.2692ZM83.043 30.0518C84.4348 30.0518 85.5319 30.936 85.5647 32.3278H80.5704C80.7669 30.9032 81.7821 30.0518 83.043 30.0518ZM87.2676 34.9641H85.2536C84.9097 35.6682 84.2711 36.225 83.1249 36.225C81.7494 36.225 80.685 35.3244 80.554 33.8343H87.4477C87.4969 33.5232 87.5132 33.2284 87.5132 32.9173C87.5132 30.2646 85.6957 28.4798 83.1249 28.4798C80.4558 28.4798 78.6218 30.2974 78.6218 33.1302C78.6218 35.963 80.5377 37.7969 83.1249 37.7969C85.3354 37.7969 86.76 36.5361 87.2676 34.9641ZM91.217 29.9535V28.6272H89.3503V41.9397H91.217V36.3396C91.8065 37.0437 92.8708 37.7969 94.3609 37.7969C96.7352 37.7969 98.6019 35.8811 98.6019 33.0974C98.6019 30.3138 96.7352 28.4798 94.3609 28.4798C92.8872 28.4798 91.7901 29.2003 91.217 29.9535ZM96.7025 33.0974C96.7025 35.046 95.3597 36.1759 93.9515 36.1759C92.5597 36.1759 91.217 35.0788 91.217 33.1302C91.217 31.198 92.5597 30.1009 93.9515 30.1009C95.3597 30.1009 96.7025 31.1489 96.7025 33.0974ZM109.045 33.1302C109.045 30.2974 107.014 28.4798 104.443 28.4798C101.872 28.4798 99.842 30.2974 99.842 33.1302C99.842 35.963 101.791 37.7969 104.361 37.7969C106.949 37.7969 109.045 35.963 109.045 33.1302ZM101.741 33.1302C101.741 31.0834 103.002 30.1009 104.411 30.1009C105.802 30.1009 107.129 31.0834 107.129 33.1302C107.129 35.177 105.753 36.1759 104.361 36.1759C102.953 36.1759 101.741 35.177 101.741 33.1302ZM112.757 32.9009C112.757 30.9851 113.608 30.412 114.984 30.412H115.458V28.4798C114.181 28.4798 113.281 29.0365 112.757 29.9371V28.6272H110.89V37.6496H112.757V32.9009ZM117.469 35.1443C117.469 36.9782 118.468 37.6496 120.073 37.6496H121.546V36.094H120.4C119.614 36.094 119.352 35.8156 119.352 35.1443V30.15H121.546V28.6272H119.352V26.3838H117.469V28.6272H116.405V30.15H117.469V35.1443Z" fill="#414141"/>
<defs>
<filter id="filter0_d_211_1339" x="161.536" y="80.9625" width="85.8827" height="35.3291" filterUnits="userSpaceOnUse" color-interpolation-filters="sRGB">
<feFlood flood-opacity="0" result="BackgroundImageFix"/>
<feColorMatrix in="SourceAlpha" type="matrix" values="0 0 0 0 0 0 0 0 0 0 0 0 0 0 0 0 0 0 127 0" result="hardAlpha"/>
<feOffset dy="1.64458"/>
<feGaussianBlur stdDeviation="2.46687"/>
<feColorMatrix type="matrix" values="0 0 0 0 0.931556 0 0 0 0 0.931556 0 0 0 0 0.931556 0 0 0 0.94157 0"/>
<feBlend mode="normal" in2="BackgroundImageFix" result="effect1_dropShadow_211_1339"/>
<feBlend mode="normal" in="SourceGraphic" in2="effect1_dropShadow_211_1339" result="shape"/>
</filter>
<linearGradient id="paint0_linear_211_1339" x1="51.0434" y1="73.9263" x2="51.0434" y2="274.33" gradientUnits="userSpaceOnUse">
<stop stop-color="#F9F1FF"/>
<stop offset="1" stop-color="white"/>
</linearGradient>
<linearGradient id="paint1_linear_211_1339" x1="232.016" y1="-43.252" x2="36.9104" y2="283.528" gradientUnits="userSpaceOnUse">
<stop stop-color="#E9B0FF"/>
<stop offset="1" stop-color="#8A63E5"/>
</linearGradient>
<clipPath id="clip0_211_1339">
<rect width="76.0152" height="25.8125" fill="white" transform="translate(166.47 84.2516)"/>
</clipPath>
</defs>
</svg>
