<?xml version="1.0" encoding="UTF-8"?>
<svg id="Layer_2" data-name="Layer 2" xmlns="http://www.w3.org/2000/svg" xmlns:xlink="http://www.w3.org/1999/xlink" viewBox="0 0 20.27 16.51">
  <defs>
    <style>
      .cls-1 {
        fill: #fff;
      }

      .cls-2 {
        clip-path: url(#clippath);
      }

      .cls-3 {
        fill: none;
      }
    </style>
    <clipPath id="clippath">
      <rect class="cls-3" width="20.27" height="16.51"/>
    </clipPath>
  </defs>
  <g id="Layer_1-2" data-name="Layer 1">
    <g class="cls-2">
      <path class="cls-1" d="M18.17,4.44c.01,.17,.01,.35,.01,.52,0,5.36-4.17,11.55-11.8,11.55h0c-2.25,0-4.46-.63-6.36-1.82,.33,.04,.66,.06,.99,.06,1.87,0,3.68-.61,5.15-1.74-1.78-.03-3.33-1.17-3.88-2.82,.62,.12,1.26,.09,1.87-.07-1.94-.38-3.33-2.05-3.33-3.98v-.05c.58,.31,1.22,.49,1.88,.51C.89,5.4,.33,3.03,1.43,1.18,3.54,3.71,6.65,5.25,9.98,5.42c-.33-1.41,.12-2.89,1.2-3.88C12.85,0,15.48,.08,17.05,1.71c.93-.18,1.82-.51,2.63-.99-.31,.94-.96,1.74-1.82,2.24,.82-.09,1.63-.31,2.38-.64-.56,.82-1.26,1.53-2.07,2.1Z"/>
    </g>
  </g>
</svg>