<svg width="11" height="10" viewBox="0 0 11 10" fill="none" xmlns="http://www.w3.org/2000/svg">
<path fill-rule="evenodd" clip-rule="evenodd" d="M3.37608 0.497688C3.64587 0.497688 3.86458 0.703814 3.86458 0.958084V1.41848H7.77255V0.958084C7.77255 0.703814 7.99126 0.497688 8.26105 0.497688C8.53084 0.497688 8.74955 0.703814 8.74955 0.958084V1.41848H9.23805C10.0474 1.41848 10.7035 2.03686 10.7035 2.79967V8.32442C10.7035 9.08722 10.0474 9.7056 9.23805 9.7056H2.39909C1.58972 9.7056 0.933594 9.08722 0.933594 8.32442V2.79967C0.933594 2.03686 1.58972 1.41848 2.39909 1.41848H2.88758V0.958084C2.88758 0.703814 3.10629 0.497688 3.37608 0.497688ZM7.77255 2.33927V2.79967C7.77255 3.05394 7.99126 3.26006 8.26105 3.26006C8.53084 3.26006 8.74955 3.05394 8.74955 2.79967V2.33927H9.23805C9.50783 2.33927 9.72654 2.5454 9.72654 2.79967V4.18085H1.91059V2.79967C1.91059 2.5454 2.1293 2.33927 2.39909 2.33927H2.88758V2.79967C2.88758 3.05394 3.10629 3.26006 3.37608 3.26006C3.64587 3.26006 3.86458 3.05394 3.86458 2.79967V2.33927H7.77255ZM1.91059 5.10165V8.32442C1.91059 8.57868 2.1293 8.78481 2.39909 8.78481H9.23805C9.50783 8.78481 9.72654 8.57868 9.72654 8.32442V5.10165H1.91059Z" fill="#36435C"/>
</svg>
