<?xml version="1.0" encoding="UTF-8"?>
<svg id="Layer_2" data-name="Layer 2" xmlns="http://www.w3.org/2000/svg" xmlns:xlink="http://www.w3.org/1999/xlink" viewBox="0 0 19.47 19.51">
  <defs>
    <style>
      .cls-1 {
        fill: #fff;
      }

      .cls-2 {
        clip-path: url(#clippath);
      }

      .cls-3 {
        fill: none;
      }
    </style>
    <clipPath id="clippath">
      <rect class="cls-3" width="19.47" height="19.51"/>
    </clipPath>
  </defs>
  <g id="Layer_1-2" data-name="Layer 1">
    <g class="cls-2">
      <path class="cls-1" d="M9.48,0C4.19,.14-.02,4.48,0,9.77c0,5.38,4.36,9.74,9.74,9.74s9.74-4.36,9.74-9.74C19.49,4.39,15.15,.02,9.77,0c-.1,0-.19,0-.29,0m-1.26,1.04c-.93,1.64-1.59,3.43-1.96,5.28H1.58C2.75,3.55,5.26,1.56,8.23,1.05Zm3.02,0c2.97,.51,5.47,2.5,6.65,5.28h-4.68c-.37-1.85-1.03-3.64-1.96-5.28Zm-1.53,.21c.39,0,.75,.2,.94,.55,.76,1.42,1.32,2.94,1.65,4.52H7.17c.33-1.58,.89-3.1,1.65-4.52,.18-.33,.52-.54,.89-.55ZM1.26,7.21H6.12c-.25,1.7-.25,3.42,0,5.11H1.26c-.5-1.67-.5-3.45,0-5.11Zm5.75,0h5.45c.26,1.69,.26,3.42,0,5.11H7.01c-.26-1.69-.26-3.42,0-5.11Zm6.34,0h4.85c.5,1.67,.5,3.45,0,5.11h-4.85c.25-1.69,.25-3.42,0-5.11ZM1.58,13.21H6.27c.37,1.85,1.03,3.64,1.96,5.28-2.97-.52-5.47-2.5-6.65-5.28Zm5.59,0h5.13c-.33,1.58-.89,3.1-1.65,4.52-.27,.5-.9,.69-1.41,.42-.18-.1-.33-.24-.42-.42-.76-1.42-1.32-2.94-1.65-4.52Zm6.03,0h4.68c-1.17,2.78-3.68,4.77-6.65,5.28,.93-1.64,1.59-3.43,1.96-5.28Z"/>
    </g>
  </g>
</svg>